<?xml version="1.0" encoding="iso-8859-1"?>
<!-- Generator: Adobe Illustrator 22.1.0, SVG Export Plug-In . SVG Version: 6.00 Build 0)  -->
<svg version="1.1" xmlns="http://www.w3.org/2000/svg" xmlns:xlink="http://www.w3.org/1999/xlink" x="0px" y="0px"
	 viewBox="0 0 200 103.129" style="enable-background:new 0 0 200 103.129;" xml:space="preserve">
<g id="Layer_1">
	<g>
		<g>
			<g>
				<polygon style="fill:#000099;" points="122.093,43.031 122.093,49.343 122.093,80.906 147.343,80.906 147.343,74.593 
					147.343,17.781 				"/>
				<polygon style="fill:#000099;" points="100,27.25 77.907,5.157 77.907,43.031 81.062,46.186 81.061,46.187 99.998,65.125 
					118.935,46.187 99.999,27.251 				"/>
			</g>
			<g>
				<polygon style="fill:#FF0000;" points="122.093,5.157 100,27.25 118.937,46.187 122.093,43.031 147.343,17.781 147.343,5.157 
									"/>
				<polygon style="fill:#FF0000;" points="52.657,17.781 52.657,74.593 52.657,80.906 77.907,80.906 77.907,49.343 77.907,43.031 
					77.907,5.157 52.657,5.157 				"/>
			</g>
			<g>
				<polygon style="opacity:0.5;enable-background:new    ;" points="52.657,80.906 77.907,80.906 77.907,74.593 52.657,49.343 				
					"/>
				<polygon style="opacity:0.5;enable-background:new    ;" points="77.907,43.031 96.844,24.094 77.907,5.157 				"/>
				
					<rect x="106.198" y="15.438" transform="matrix(0.7071 -0.7071 0.7071 0.7071 13.9883 91.4277)" style="opacity:0.5;enable-background:new    ;" width="22.318" height="26.781"/>
				<polygon style="opacity:0.5;enable-background:new    ;" points="122.093,43.031 122.093,49.343 147.343,49.343 147.343,17.781 
									"/>
			</g>
		</g>
		<g>
			<path d="M11.551,92.375v5.598H10v-9.361l4.68,4.68l4.694-4.68v9.361h-1.578v-5.598l-3.116,3.129L11.551,92.375z"/>
			<path d="M32.803,96.408H28.5l-0.796,1.565h-1.74l4.68-9.361l4.68,9.361h-1.74L32.803,96.408z M29.269,94.857h2.752l-1.376-2.752
				L29.269,94.857z"/>
			<path d="M47.917,97.972l-1.807-3.116h-2.644v3.116h-1.551v-9.361h4.68c0.854,0,1.587,0.306,2.199,0.917
				c0.611,0.612,0.917,1.345,0.917,2.199c0,0.647-0.185,1.236-0.553,1.767c-0.36,0.522-0.818,0.895-1.375,1.12l1.929,3.358H47.917z
				 M46.596,90.177h-3.129v3.102l3.129,0.014c0.423,0,0.787-0.153,1.092-0.458s0.458-0.675,0.458-1.106
				c0-0.423-0.153-0.787-0.458-1.092S47.018,90.177,46.596,90.177z"/>
			<path d="M59.417,93.292l4.68,4.68h-2.199l-4.046-4.019v4.019h-1.551v-9.361h1.551v4.033l4.046-4.033h2.199L59.417,93.292z"/>
			<path d="M72.697,88.612c1.295,0,2.396,0.458,3.304,1.375c0.926,0.917,1.39,2.019,1.39,3.305c0,1.304-0.463,2.405-1.39,3.304
				c-0.908,0.917-2.009,1.376-3.304,1.376c-1.295,0-2.396-0.458-3.304-1.376c-0.917-0.908-1.376-2.009-1.376-3.304
				c0-1.286,0.458-2.387,1.376-3.305C70.292,89.07,71.393,88.612,72.697,88.612z M72.697,90.177c-0.854,0-1.592,0.306-2.212,0.917
				c-0.603,0.612-0.904,1.345-0.904,2.199c0,0.854,0.301,1.592,0.904,2.212c0.62,0.603,1.357,0.904,2.212,0.904
				c0.854,0,1.587-0.301,2.199-0.904c0.611-0.62,0.917-1.357,0.917-2.212c0-0.854-0.306-1.587-0.917-2.199
				C74.284,90.482,73.551,90.177,72.697,90.177z"/>
			<path d="M83.901,88.612l2.954,5.867l2.927-5.867l2.94,5.867l2.941-5.867h1.74l-4.68,9.361l-2.94-5.867l-2.927,5.867l-4.694-9.361
				H83.901z"/>
			<path d="M103.993,88.612h1.551v9.361h-1.551V88.612z"/>
			<path d="M112.134,88.612h7.81v1.565h-3.116v7.796h-1.564v-7.796h-3.129V88.612z"/>
			<path d="M132.644,90.177h-6.11v-1.565h9.307l-6.096,7.796h6.164v1.565h-9.374L132.644,90.177z"/>
			<path d="M150.491,88.612h1.551v7.796h4.68v1.565h-6.231V88.612z"/>
			<path d="M170.151,96.408h-4.303l-0.796,1.565h-1.74l4.68-9.361l4.68,9.361h-1.74L170.151,96.408z M166.617,94.857h2.752
				l-1.376-2.752L166.617,94.857z"/>
			<path d="M176.499,88.612l2.954,5.867l2.927-5.867l2.94,5.867l2.941-5.867H190l-4.68,9.361l-2.94-5.867l-2.927,5.867l-4.694-9.361
				H176.499z"/>
		</g>
	</g>
</g>
<g id="Layer_2" style="display:none;">
	
		<text transform="matrix(1 0 0 1 -46.5 227.5645)" style="display:inline; font-family:'Telegrafico'; font-size:40px; letter-spacing:8;">MARKOWITZ LAW</text>
</g>
</svg>
