<?xml version="1.0" encoding="utf-8"?>
<!-- Generator: Adobe Illustrator 22.1.0, SVG Export Plug-In . SVG Version: 6.00 Build 0)  -->
<svg version="1.1" xmlns="http://www.w3.org/2000/svg" xmlns:xlink="http://www.w3.org/1999/xlink" x="0px" y="0px"
	 viewBox="0 0 500 367.1" style="enable-background:new 0 0 500 367.1;" xml:space="preserve">
<style type="text/css">
	.st0{fill:#FF0000;}
	.st1{opacity:0.5;enable-background:new    ;}
	.st2{fill:#000099;}
	.st3{clip-path:url(#SVGID_2_);}
</style>
<g id="Layer_2_copy">
	<g>
		<path class="st0" d="M207.5,359.9l13-67.2l-14.3-14.3c-0.9,1.2-1.8,2.3-2.6,3.1c-3.6,3.7-8.3,6.4-13.9,7.9
			c-5.6,1.6-17.8,2.3-36.5,2.3h-41.7v68.1H207.5z"/>
		<path class="st1" d="M207.5,359.9l13-67.2l-14.3-14.3c-0.9,1.2-1.8,2.3-2.6,3.1c-3.6,3.7-8.3,6.4-13.9,7.9
			c-5.6,1.6-17.8,2.3-36.5,2.3h-41.7v68.1H207.5z"/>
		<path class="st0" d="M139.3,211.4l-19.1-19.1c-1.4,3-2.8,5.9-4.4,8.9c-1.2,2.4-2.7,5-4.4,7.8v30.2v17.9
			c13.2-13.6,24.9-26.4,35.2-38.3L139.3,211.4L139.3,211.4z"/>
		<path class="st1" d="M139.3,211.4l-19.1-19.1c-1.4,3-2.8,5.9-4.4,8.9c-1.2,2.4-2.7,5-4.4,7.8v30.2v17.9
			c13.2-13.6,24.9-26.4,35.2-38.3L139.3,211.4L139.3,211.4z"/>
		<path class="st2" d="M130.5,164.5c-2.6,9.2-6,18.5-10.3,27.8l19.1,19.1l0,0l7.4,7.4c20.7-23.9,35.7-44.3,45-61.2
			c12.8-23.7,19.2-47.1,19.2-70.2c0-1-0.1-2.1-0.1-3.1L130.5,164.5z"/>
		<path class="st2" d="M227.2,257.9h-9.4c-4.6,9.3-8.5,16.1-11.7,20.4l14.3,14.3L227.2,257.9z"/>
		<path class="st0" d="M48.9,23.9c-19.1,16-33.3,40.6-42.6,73.8l9.6,3.4c14.7-26.7,35.4-40,62.1-40c12.7,0,23.8,3.7,33.4,11V0.1
			C87.9,0.9,67,8.7,48.9,23.9z"/>
		<path class="st0" d="M111.4,209.1C95.1,236.7,58.5,284.4,1.6,352.3l7.6,7.6h102.3v-68.1H77c12.4-12.1,23.9-23.6,34.5-34.6v-17.9
			L111.4,209.1L111.4,209.1z"/>
		<path class="st0" d="M0,354.1v5.7h9.2l-7.6-7.6C1,352.9,0.5,353.5,0,354.1z"/>
		<path class="st1" d="M0,354.1v5.7h9.2l-7.6-7.6C1,352.9,0.5,353.5,0,354.1z"/>
		<path class="st2" d="M111.4,72.1c2.8,2.1,5.4,4.4,7.9,7.1c11.3,12,16.9,27.2,16.9,45.4c0,13.1-1.9,26.5-5.7,39.9l80.2-80.2
			c-0.6-11.8-4.7-24.3-12.4-37.6c-8.3-14.5-19.8-25.9-34.6-34.2C149.1,4.2,132.8,0,114.9,0c-1.2,0-2.3,0.1-3.5,0.1V72.1z"/>
		<path class="st1" d="M111.4,72.1c2.8,2.1,5.4,4.4,7.9,7.1c11.3,12,16.9,27.2,16.9,45.4c0,13.1-1.9,26.5-5.7,39.9l80.2-80.2
			c-0.6-11.8-4.7-24.3-12.4-37.6c-8.3-14.5-19.8-25.9-34.6-34.2C149.1,4.2,132.8,0,114.9,0c-1.2,0-2.3,0.1-3.5,0.1V72.1z"/>
	</g>
</g>
<g id="Layer_2">
	<g>
		<defs>
			<path id="SVGID_1_" d="M273.9,297.1c5.8-6.1,13.7-9.2,23.6-9.2c12.6,0,29.6,7.6,51,22.9c21.3,15.3,37.9,22.9,49.7,22.9
				c13.8,0,25.8-4.9,35.8-14.6c10.1-9.7,15.1-22.9,15.1-39.4c0-16.9-5.7-31.2-17.2-43c-11.4-11.8-24.3-20.9-38.7-27.4
				c-15.4-7-32.8-12.1-52.2-15.4c-12.6-2-32.9-4-60.7-5.9l51-181H500l-22.5,66.8H332.1l-12,42.5c40.6,1.2,73.6,7.1,98.9,17.7
				c47.5,19.8,71.2,55,71.2,105.5c0,36.9-14.2,67.2-42.5,91c-28.3,23.8-63.9,35.7-106.8,35.7c-21.7,0-39.7-4.3-54.2-12.8
				c-14.4-8.5-21.6-19.8-21.6-33.8C265.2,310.8,268.1,303.3,273.9,297.1z"/>
		</defs>
		<clipPath id="SVGID_2_">
			<use xlink:href="#SVGID_1_"  style="overflow:visible;"/>
		</clipPath>
		<g class="st3">
			<polygon class="st2" points="366,183 366,213 366,363.2 505.5,363.2 505.5,333.2 505.5,62.9 			"/>
			<g>
				<polygon class="st0" points="385.4,2.8 280.3,107.9 370.4,198 385.4,183 505.5,62.9 505.5,2.8 				"/>
				<polygon class="st0" points="55.1,62.9 55.1,333.2 55.1,363.2 175.2,363.2 175.2,213 175.2,183 175.2,2.8 55.1,2.8 				"/>
			</g>
			<polygon class="st1" points="55.1,363.2 175.2,363.2 175.2,333.2 55.1,213 			"/>
			<g>
				<polygon class="st2" points="280.3,107.9 175.2,2.8 175.2,183 190.2,198 190.2,198 280.3,288.1 370.3,198 280.3,108 				"/>
				<polygon class="st1" points="175.2,183 265.3,92.9 175.2,2.8 				"/>
			</g>
			
				<rect x="309.8" y="51.8" transform="matrix(0.7071 -0.7071 0.7071 0.7071 24.6335 290.3784)" class="st1" width="106.2" height="127.4"/>
			<polygon class="st1" points="366,202.4 366,213 505.5,213 505.5,62.9 			"/>
			<g>
				<polygon class="st2" points="280.3,108.7 385.4,3.6 205.2,3.6 190.2,18.6 190.2,18.6 100.1,108.6 190.2,198.7 280.3,108.7 				
					"/>
				<polygon class="st1" points="205.2,3.6 295.3,93.6 385.4,3.6 				"/>
			</g>
			<polygon class="st0" points="245.9,288.1 140.8,408.3 230.9,498.4 245.9,483.4 366,363.3 366,288.1 			"/>
			<rect x="259.8" y="265.9" class="st1" width="106.2" height="127.4"/>
		</g>
	</g>
</g>
</svg>
