<?xml version="1.0" encoding="utf-8"?>
<!-- Generator: Adobe Illustrator 22.1.0, SVG Export Plug-In . SVG Version: 6.00 Build 0)  -->
<svg version="1.1" xmlns="http://www.w3.org/2000/svg" xmlns:xlink="http://www.w3.org/1999/xlink" x="0px" y="0px"
	 viewBox="0 0 375 90.7" style="enable-background:new 0 0 375 90.7;" xml:space="preserve">
<style type="text/css">
	.st0{display:none;}
	.st1{display:inline;}
	.st2{fill:#00004C;}
	.st3{fill:#FF0000;}
	.st4{fill:#7F0000;}
	.st5{fill:#000099;}
	.st6{fill:#7F0000;enable-background:new    ;}
	.st7{fill:#00004C;enable-background:new    ;}
</style>
<g id="Layer_1" class="st0">
	<g class="st1">
		<path d="M117.4-3.1l4-4c0.1,1.4,0.3,2.8,0.3,4.3H117L117.4-3.1L117.4-3.1z"/>
		<g>
			<path class="st2" d="M369.4,114c-2-3.1-6.3-6.8-12.7-11.1c-6.5-4.4-10.4-7.4-11.8-9.2c-0.9-1.1-1.3-2.2-1.3-3.4
				c0-1.6,0.6-3,1.9-4.2c1.3-1.2,2.8-1.8,4.6-1.8c2.8,0,5.7,1.2,8.6,3.4c2.9,2.3,5.7,6.5,8.3,12.8h2.2l-1-21h-2.2
				c-1.1,1.5-1.8,2.5-2.3,2.8c-0.5,0.3-1.1,0.5-1.9,0.5c-0.7,0-1.7-0.3-2.9-1c-3.1-1.6-6.4-2.4-9.7-2.4c-1.1,0-2.1,0.1-3.1,0.2
				l-5.3,5.3l-10.5,10.5c-0.1,0.9-0.2,1.7-0.2,2.6c0,4.4,1.4,8.3,4.3,11.9c1.8,2.2,5.4,5.3,11,9.2h26.3
				C371.3,117.3,370.5,115.6,369.4,114z"/>
			<path class="st2" d="M313.4,136c-0.7,0-1.5-0.3-2.3-1c-0.8-0.6-1.4-1.5-1.8-2.5c-0.3-1-0.5-3.3-0.5-6.9v-8.9l-17.4,17.4
				c0.9,2.2,2.5,4.3,4.8,6.2c2.7,2.2,6,3.3,9.9,3.3c8,0,13.8-4.2,17.3-12.7l-2-1.5C319,133.8,316.3,136,313.4,136z"/>
			<polygon class="st2" points="153.9,-39.6 151.2,-36.9 141,-26.7 135.4,-21.1 135.4,7.6 141,7.6 153.9,7.6 153.9,-24.8 
				168.5,-24.8 168.5,-31.3 153.9,-31.3 			"/>
			<path class="st2" d="M123.3,122.2h-2.2l0.6,11.4l7.7,7.7c0.4,0.1,0.8,0.3,1.3,0.4c4.2,1.6,7.6,2.5,10.4,2.7v-4.9
				c-3-0.1-6.2-1.5-9.5-4.3C128,132.3,125.3,128,123.3,122.2z"/>
			<path class="st2" d="M129,114V81.8c-1.4,0.8-2.7,1.9-3.8,3.2c-3.3,3.9-4.9,8.1-4.9,12.9c0,4.4,1.5,8.3,4.3,11.9
				C125.5,111,127,112.4,129,114z"/>
			<path class="st2" d="M119.5,11.9c-2.5,3.8-4.8,6.5-6.9,7.9c-2.1,1.5-4.5,2.2-7.2,2.2c-3.6,0-6.7-1.3-9.4-3.8L84.8,29.5
				c3.4,1.7,7.4,2.6,11.9,2.6c5.3,0,10-1.4,14-4.3c4-2.8,7.7-7.6,11.1-14.4L119.5,11.9z"/>
			<path class="st2" d="M88.1,79.2c-5.7,0-10.9,1.8-15.5,5.4l6.7,6.7c0.6-1.6,1.3-3.1,2.2-4.4c1.5-2.2,3.3-3.4,5.6-3.4
				c1.5,0,2.8,0.4,3.7,1.2c1.6,1.3,2.8,3.4,3.6,6c0.8,2.6,1.2,7.5,1.2,14.6h-2.2l4.4,4.4h14c-0.3-10.1-2.8-17.6-7.4-22.8
				C99.7,81.8,94.3,79.2,88.1,79.2z"/>
		</g>
		<g>
			<path class="st3" d="M308.9,81.1V58.6h-2.2c-2.9,5.3-6.3,10.1-10.2,14.4c-2.2,2.4-4.7,4.8-7.4,7.2l18.3,18.3l1.5,1.5V87.6h14.6
				v-6.5H308.9z"/>
			<path class="st3" d="M141,119v3.9c2.7,1.9,4.5,3.5,5.5,4.6c1.3,1.5,2,3.4,2,5.5c0,1.8-0.7,3.4-2,4.7c-1.3,1.3-3.1,1.9-5.2,1.9
				c-0.1,0-0.2,0-0.3,0v4.9c0.5,0.1,1,0.1,1.4,0.1c3.8,0,7.2-0.9,10.3-2.6c3.1-1.8,5.5-4.3,7.2-7.6c1.7-3.3,2.6-6.7,2.6-10.1
				c0-1.8-0.2-3.6-0.7-5.2H141z"/>
			<path class="st3" d="M102.6,132.3c-1.2,0.8-2.4,1.4-3.8,1.8l4.3,4.3c3.1-2.9,6-7.1,8.7-12.5l-2.2-1.5
				C107,128.2,104.7,130.8,102.6,132.3z"/>
			<path class="st3" d="M98.1-33.2c-3.2,0-6.2,0.6-9.1,1.7l4.1,4.1c1.2-1,2.5-1.5,4-1.5c1.5,0,2.8,0.4,3.7,1.2
				c1.6,1.3,2.8,3.4,3.6,6c0.4,1.5,0.7,3.7,0.9,6.5c0,0,0,0,0,0l2.2,2.1l9.9,9.9l0,0l4-4c-0.8-7.9-3.2-14.1-7.1-18.4
				C109.7-30.6,104.3-33.2,98.1-33.2z"/>
			<path class="st3" d="M93.3,105.3H77.6V103c0-4.5,0.6-8.4,1.7-11.6l-6.7-6.7c-1.4,1.1-2.8,2.3-4.1,3.8c-5.6,6.1-8.3,14.3-8.3,24.5
				c0,8.4,1.9,15.4,5.7,21.1c4.3,6.4,10.4,9.9,18.4,10.4l10-10c-3.8-0.3-7-2.1-9.8-5.4c-4-4.7-6.1-11.2-6.5-19.4h19.7L93.3,105.3z"
				/>
			<path class="st3" d="M47.3,79.2c-2.8,0-5.8,1-8.9,3.1c-3.1,2.1-6.7,6.3-10.7,12.7v-8.4L9.4,105v23.2c0,5.4-0.5,8.7-1.4,9.9
				c-0.9,1.3-2.8,2-5.4,2.2v2.4h33.3v-2.4c-2.5-0.1-4.2-0.5-5.2-1c-1-0.5-1.8-1.4-2.3-2.6c-0.3-0.7-0.5-2.3-0.5-4.8l-0.1-3.7V114
				c0-5.1,0.7-9.8,2.1-14.1c0.3-1,0.8-2,1.2-2.8c0.8-1.4,1.7-2.6,2.9-3.6c1.1-1,2.4-1.4,3.6-1.4c0.6,0,1.1,0.1,1.5,0.4
				c0.3,0.2,1.3,1,3,2.5c1.7,1.5,3.7,2.2,6.1,2.2c2,0,3.7-0.8,5.2-2.4c1.4-1.6,2.1-3.9,2.1-6.9c0-2.8-0.7-4.9-2.2-6.4
				C51.7,80,49.7,79.2,47.3,79.2z"/>
		</g>
		<g>
			<path class="st4" d="M137.6,120.5c1.2,0.9,2.4,1.6,3.4,2.4V119h-5.5C136.2,119.5,136.9,120,137.6,120.5z"/>
			<path class="st4" d="M335.1,85c-2.7,3.1-4.2,6.6-4.7,10.3l10.5-10.5l5.3-5.3C341.5,80,337.8,81.8,335.1,85z"/>
			<polygon class="st4" points="271.1,62.1 271.1,53.4 262.3,53.4 			"/>
			<polygon class="st4" points="213,142.7 218.8,142.7 213,136.9 			"/>
			<path class="st4" d="M206.6,134.3c-1.3,0.8-2.7,1.2-4.3,1.2c-1.2,0-2.2-0.3-3.1-1c-0.9-0.7-1.6-1.6-2-2.9
				c-0.4-1.3-0.6-4.1-0.6-8.5v-2.7l-1.5-1.5h-16.9c0,7.1,0.5,12,1.4,14.8c0.9,2.8,2.7,5.4,5.4,7.5c2.7,2.1,5.8,3.2,9.3,3.2
				c3.6,0,6.9-0.8,9.9-2.4c2.6-1.4,5.1-3.5,7.7-6.4l-3.1-3.1C208,133.3,207.3,133.9,206.6,134.3z"/>
			<path class="st4" d="M141.5-39.4c-3.9,4.3-8.6,8.4-14.1,12.3v2.3h8v3.7l5.5-5.5l10.2-10.2l2.7-2.7v-14.3h-2.2
				C148.8-48.6,145.4-43.7,141.5-39.4z"/>
			<path class="st4" d="M122.1,144.3h2.2c1-2.2,2.2-3.3,3.6-3.3c0.3,0,0.8,0.1,1.4,0.3l-7.7-7.7L122.1,144.3z"/>
			<path class="st4" d="M95.4,134.5c-0.4,0-0.8,0-1.1,0l-10,10c0.8,0.1,1.5,0.1,2.4,0.1c5.3,0,10-1.4,14-4.3
				c0.8-0.6,1.6-1.2,2.4-1.9l-4.3-4.3C97.7,134.4,96.6,134.5,95.4,134.5z"/>
			<path class="st4" d="M2.5,83.5c2.1,0.2,3.6,0.6,4.4,1.2c0.8,0.6,1.5,1.5,1.9,2.7c0.3,1,0.5,3.2,0.5,6.7V105l18.3-18.3v-5.6H2.5
				V83.5z"/>
			<path class="st4" d="M32.2,54.8c-7.2,0-12-0.9-14.6-2.7c-2.6-1.8-3.9-3.9-3.9-6.1c0-2.3,1.3-4.2,3.8-5.5c1.4-0.7,4.4-1.1,8.9-1.1
				c0.2,0,0.4,0,0.6,0L6.9,19.2c-1.4,2.2-2.1,4.5-2.1,6.8c0,5,2.8,8.9,8.6,11.7c-4.1,1.1-6.9,2.4-8.5,4c-1.5,1.6-2.3,3.4-2.3,5.4
				c0,2.1,1,4.1,3,6c2,1.9,5.2,3.4,9.8,4.5c4.6,1.1,9.6,1.6,15.2,1.6c5.4,0,10.3-0.6,14.7-1.7L41.6,54
				C38.9,54.5,35.8,54.8,32.2,54.8z"/>
		</g>
		<g>
			<path class="st5" d="M371.8,119h-26.3c0.7,0.5,1.3,0.9,2.1,1.4c4.6,3.1,7.5,5.4,8.8,7c1.3,1.5,2,3.4,2,5.5c0,1.8-0.7,3.4-2,4.7
				c-1.3,1.3-3.1,1.9-5.2,1.9c-3.1,0-6.3-1.4-9.8-4.3c-3.4-2.9-6.2-7.2-8.1-13H331l1,22.1h2.2c1-2.2,2.2-3.3,3.6-3.3
				c0.5,0,1.4,0.2,2.7,0.7c4.9,1.8,8.8,2.8,11.8,2.8c3.8,0,7.2-0.9,10.3-2.6c3.1-1.8,5.5-4.3,7.3-7.6c1.7-3.3,2.6-6.7,2.6-10.1
				C372.5,122.4,372.3,120.7,371.8,119z"/>
			<path class="st5" d="M289.1,80.1c-2.1,1.8-4.3,3.5-6.7,5.2v2.3h8v33.3c0,6.6,0.2,10.6,0.7,12.1c0.1,0.4,0.2,0.7,0.4,1.1
				l17.4-17.4V99.9l-1.5-1.5L289.1,80.1z"/>
			<path class="st5" d="M272.6,138.2c-1-1.2-1.5-4-1.5-8.3V62.1l-8.8-8.8h-17.1v2.4c2.9,0.2,4.9,0.9,5.9,2.1c1,1.2,1.5,4,1.5,8.3
				v63.8c0,4.3-0.4,7-1.3,8c-1.3,1.5-3.3,2.3-6.1,2.4v2.4h33.3v-2.4C275.6,140.1,273.6,139.4,272.6,138.2z"/>
			<path class="st5" d="M232.7,138.1c-0.9-1.2-1.3-4.1-1.3-8.8V81.1h-25.1v2.4c2.7,0.4,4.5,1.1,5.4,2.2c0.9,1.1,1.3,4,1.3,8.7v32.9
				c-1.6,2.2-3,4-4.3,5.2l3.1,3.1l1.1,1.1l5.8,5.8h19.3v-2.4C235.4,140,233.6,139.3,232.7,138.1z"/>
			<path class="st5" d="M171.5,83.5c2.7,0.4,4.5,1.1,5.4,2.2c0.9,1.1,1.3,4,1.3,8.7v24.4c0,0,0,0.1,0,0.1h16.9l1.5,1.5V81.1h-25.1
				V83.5z"/>
			<path class="st5" d="M158.4,23.5c-0.7,0-1.5-0.3-2.3-1c-0.8-0.6-1.4-1.5-1.7-2.5c-0.3-1-0.5-3.3-0.5-6.9V7.6H141h-5.5v0.8
				c0,6.6,0.2,10.6,0.7,12.1c0.7,2.7,2.5,5.1,5.2,7.3s6,3.3,9.9,3.3c8,0,13.8-4.2,17.3-12.7l-2-1.5C164,21.4,161.3,23.5,158.4,23.5z
				"/>
			<path class="st5" d="M146.8,102.9c-6.5-4.4-10.4-7.4-11.8-9.2c-0.9-1.1-1.3-2.2-1.3-3.4c0-1.6,0.6-3,1.9-4.2
				c1.3-1.2,2.8-1.8,4.6-1.8c2.8,0,5.7,1.2,8.6,3.4s5.7,6.5,8.3,12.8h2.2l-1-21h-2.2c-1,1.5-1.8,2.5-2.3,2.8
				c-0.5,0.3-1.1,0.5-1.9,0.5c-0.7,0-1.7-0.3-2.9-1c-3.1-1.6-6.4-2.4-9.7-2.4c-4.1,0-7.6,0.8-10.4,2.5V114c1.8,1.5,4,3.1,6.6,5h5.5
				h20.9c-0.5-1.8-1.3-3.4-2.4-5C157.5,110.9,153.2,107.2,146.8,102.9z"/>
			<path class="st5" d="M105.3-15.2c0.1,2.2,0.2,4.9,0.2,8H87.6v-2.3c0-6.8,1.3-12.2,3.9-16.1c0.5-0.7,1-1.4,1.6-1.9L89-31.5
				c-3.8,1.5-7.3,4-10.4,7.4C73-18,70.2-9.8,70.2,0.5c0,8.4,1.9,15.4,5.7,21.1c2.4,3.6,5.3,6.2,8.9,8L96,18.3
				c-0.5-0.5-1.1-1.1-1.6-1.7c-4-4.7-6.1-11.2-6.5-19.4H117l0.4-0.4l-9.9-9.9L105.3-15.2z"/>
			<path class="st5" d="M55.1,26.2c-3.5-2-9.8-3-19-3l-11.4,0.1c-2.7,0-4.7-0.5-5.9-1.5c-1.2-1-1.8-2.3-1.8-3.9c0-1.8,0.7-3.3,2-4.6
				c0.7-0.6,1.4-1.1,2.2-1.5c0.8-0.3,1.7-0.5,2.7-0.5c2.5,0.1,4.5,0.2,5.8,0.2c1.3,0.1,2,0.1,2.1,0.1c3.3,0,7-0.9,11.2-2.7
				c4.2-1.8,7.5-4.3,10-7.6c2.4-3.2,3.6-7,3.6-11.4c0-2.6-0.5-5.1-1.6-7.4c-0.8-1.8-2.3-3.7-4.5-5.9h11.8v-7.3H41.6
				c-3.5-1.4-6.9-2.2-10.1-2.4c-0.8-0.1-1.7-0.1-2.5-0.1c-7.7,0-14.1,2.2-19,6.6c-4.9,4.4-7.4,9.6-7.4,15.6c0,4.6,1.3,8.7,4,12.2
				c2.6,3.5,6.9,6.4,12.8,8.5c-0.6,0.3-1.2,0.5-1.8,0.8c-4.1,1.9-7.2,4.1-9.2,6.6c-0.5,0.7-1,1.3-1.4,2L27,39.3
				c10,0,16.1,0.3,18.5,0.7c2.4,0.5,4.2,1.4,5.4,2.7c0.7,0.7,1,1.7,1,2.8c0,3-1.8,5.2-5.2,6.9c-1.4,0.7-3.1,1.2-5,1.6l3.7,3.7
				c1.7-0.4,3.3-0.9,4.8-1.5c3.7-1.5,6.7-3.7,9-6.8c2.3-3,3.4-6.4,3.4-10.2C62.6,33.4,60.1,29,55.1,26.2z M23.8-25.2
				c1.8-2.6,3.9-3.9,6.4-3.9c0.3,0,0.6,0,0.9,0c2.1,0.2,3.8,1.3,5,3.1c2,2.9,3,8.2,3,16.1c0,7-0.9,11.7-2.6,14.1
				c-1.8,2.4-4,3.6-6.6,3.6c-2.4,0-4.4-1.2-6.2-3.7C22,1.8,21.1-2.7,21.1-9.3C21.1-17.3,22-22.7,23.8-25.2z"/>
		</g>
	</g>
</g>
<g id="Layer_4">
</g>
<g id="Layer_3">
	<path class="st2" d="M372.5,54.1v1.3l-7.5,1.5l-5.1-5.1h8.3c0.2,0.7,0.6,1.2,1.1,1.5C369.9,53.7,371,54,372.5,54.1z"/>
	<path class="st2" d="M368.2,51.7h-8.3l-3.5-3.5c0,0,0.1-0.1,0.1-0.2v-4.2l2.4,2.4l6.7-6.7l2.2,2.2v4.2c0,2.9,0.1,4.7,0.2,5.2
		C368.1,51.5,368.2,51.6,368.2,51.7z"/>
	<polygon class="st2" points="367.9,37.4 367.9,41.9 365.6,39.6 	"/>
	<path class="st2" d="M367.9,24.4v13l-2.2,2.2l-9.1-9.1v-2.3c-2-3.8-4.4-5.7-7.3-5.7c-0.2,0-0.5,0-0.7,0.1l-3.8-3.8
		c0.8-0.2,1.7-0.2,2.5-0.2c1.8,0,3.4,0.4,4.8,1.1c1.4,0.7,2.9,1.9,4.5,3.7v-5.9h4.2L367.9,24.4z"/>
	<polygon class="st2" points="367.9,17.2 367.9,24.4 360.7,17.2 	"/>
	<polygon class="st2" points="356.5,30.5 365.6,39.6 358.9,46.3 356.5,43.9 	"/>
	<path class="st2" d="M344.7,18.7l3.8,3.8c-0.7,0.1-1.3,0.3-1.8,0.8c-1,0.8-1.8,2.3-2.5,4.4c-0.3,0.9-0.5,2-0.6,3.3l-2.1-2.1v-9.2
		C342.5,19.2,343.6,18.9,344.7,18.7z"/>
	<path class="st2" d="M341.5,28.9l2.1,2.1c-0.1,1.2-0.2,2.6-0.3,4.2l-8.8-8.9c1.3-2.3,2.9-4.1,4.8-5.4c0.7-0.5,1.4-0.9,2.2-1.2V28.9
		z"/>
	<path class="st2" d="M250.6,56v1.4h-20.4V56c1.6-0.1,2.8-0.6,3.3-1.4c0.3-0.5,0.6-1.4,0.7-2.8h11.4c0,1,0.1,1.6,0.3,1.9
		c0.3,0.7,0.8,1.3,1.4,1.6C248,55.7,249.1,55.9,250.6,56z"/>
	<path class="st2" d="M225.2,51.8l0.5,0.4c-1.4,2-2.7,3.5-4.2,4.4c-0.5,0.3-1.1,0.6-1.7,0.8v-4l1.3-1.3c0.1,0.1,0.2,0.2,0.3,0.3
		c0.3,0.2,0.6,0.3,0.9,0.3c0.6,0,1.1-0.3,1.7-1H225.2z"/>
	<path class="st2" d="M221.2,52.1l-1.3,1.3v-1.6h1.2C221.1,51.9,221.1,52,221.2,52.1z"/>
	<path class="st2" d="M219.9,53.4v4c-1,0.4-2.1,0.5-3.2,0.5c-0.4,0-0.8,0-1.2-0.1l2.8-2.8h1.1V54L219.9,53.4z"/>
	<polygon class="st2" points="219.9,51.8 219.9,53.4 219.3,54 219.3,51.8 	"/>
	<path class="st2" d="M218.2,55.1l-2.8,2.8c-1.6-0.2-2.9-0.7-3.9-1.5c-0.4-0.4-0.8-0.8-1.1-1.3H218.2z"/>
	<path class="st2" d="M197.6,55.1h7.5c-1.8,1.1-3.5,2-5.1,2.4L197.6,55.1z"/>
	<path class="st2" d="M155.2,46.1c0,2.1-0.5,4.2-1.6,6.2c-1.1,2-2.5,3.6-4.5,4.7c-1.9,1.1-4,1.6-6.3,1.6c-1.8,0-4.2-0.6-7.2-1.7
		c-0.8-0.3-1.4-0.5-1.7-0.5c-0.6,0-1.1,0.3-1.5,0.8l-1.8-1.8l4-4c0.5,0.6,1,1.1,1.5,1.5c2.1,1.8,4.1,2.7,6,2.7
		c1.3,0,2.3-0.4,3.2-1.2c0.8-0.8,1.2-1.8,1.2-2.9c0-1.3-0.4-2.4-1.2-3.4c-0.7-0.8-2-1.9-4.1-3.4l6.7-6.8h0.6l1.6-1.6
		c1.5,1.3,2.6,2.4,3.3,3.5C154.6,41.7,155.2,43.8,155.2,46.1z"/>
	<path class="st2" d="M152.6,18.5l0.6,12.9h-1.4c-1.7-3.8-3.4-6.4-5.1-7.8c-1.8-1.4-3.5-2.1-5.3-2.1c-1.1,0-2.1,0.4-2.8,1.1
		c-0.8,0.7-1.2,1.6-1.2,2.6c0,0.7,0.3,1.4,0.8,2.1c0.2,0.2,0.4,0.4,0.7,0.7l-0.2,0.2l-6.4-6.4c2-2.2,4.8-3.4,8.6-3.4
		c2.1,0,4,0.5,5.9,1.5c0.7,0.4,1.3,0.6,1.8,0.6c0.5,0,0.9-0.1,1.2-0.3c0.3-0.2,0.8-0.8,1.4-1.7H152.6z"/>
	<path class="st2" d="M134.5,51.3l-4,4l-0.4-0.4l-0.5-10.2h1.4C132,47.5,133.1,49.6,134.5,51.3z"/>
	<g>
		<path class="st3" d="M138.9,28l-0.2,0.2l9.7,9.7l1.6-1.6c-1.2-1-2.7-2.2-4.5-3.4C142.2,30.8,140,29.1,138.9,28z"/>
		<path class="st3" d="M139.8,43.8c0.4,0.3,0.9,0.6,1.3,0.9l6.7-6.8h-15.4C133.8,39.4,136.3,41.3,139.8,43.8z"/>
		<path class="st3" d="M351.1,2.6v1.7c1.8,0,3,0.2,3.6,0.6c0.6,0.4,1.1,1,1.5,1.7c0.2,0.6,0.4,2.3,0.4,5.2V13v4.2h4.2h7.1V2.6H351.1
			z"/>
		<path class="st3" d="M321.3,22.6c-2.7-2.8-5.9-4.2-9.4-4.2c-4.6,0-8.6,1.9-12,5.6c-0.3,0.3-0.6,0.7-0.9,1l6.5,6.5
			c0.2-3.5,0.9-6.3,2.3-8.4c0.9-1.4,2-2.1,3.4-2.1c0.9,0,1.7,0.2,2.3,0.7c1,0.8,1.7,2.1,2.2,3.7c0.5,1.6,0.7,4.6,0.7,8.9h-8.1
			l2.7,2.7h11.7l3.4-3.4c-0.6-4.5-2-8-4.3-10.6C321.6,23,321.4,22.8,321.3,22.6z"/>
		<path class="st3" d="M257.7,18.4c-1.5,0-3,0.4-4.5,1.3c-0.3,0.2-0.6,0.4-1,0.6c-1.5,1-3.2,2.8-5,5.5l-1.6,1.6v-7.8h-15.5v1.5
			c1.3,0.1,2.2,0.4,2.7,0.7c0.5,0.4,0.9,0.9,1.2,1.7c0.2,0.6,0.3,2,0.3,4.1v11.2v9.7c0,1.3,0,2.4-0.1,3.3h11.4c0-0.3,0-0.7,0-1
			l0-2.3v-8.7c0-3.1,0.4-6,1.3-8.6c0.6-1.7,1.4-3,2.5-3.9c0.7-0.6,1.4-0.9,2.2-0.9c0.4,0,0.7,0.1,0.9,0.2c0.2,0.1,0.8,0.6,1.9,1.5
			c1,0.9,2.3,1.4,3.7,1.4c1.2,0,2.3-0.5,3.2-1.5s1.3-2.4,1.3-4.2c0-1.7-0.4-3-1.3-3.9C260.4,18.9,259.2,18.4,257.7,18.4z"/>
		<path class="st3" d="M224.1,51.8h1.1l-0.7-0.5C224.4,51.5,224.3,51.6,224.1,51.8z"/>
		<path class="st3" d="M220.7,48.2V33.5c0-4.1-0.2-6.7-0.6-7.8c-0.1-0.2-0.1-0.4-0.2-0.6c-0.2-0.3-0.3-0.7-0.5-1v27.7h0.5h1.2
			c-0.1-0.1-0.1-0.2-0.1-0.4C220.7,51,220.7,49.9,220.7,48.2z"/>
		<path class="st3" d="M191,55.1c0.2,0.2,0.4,0.5,0.6,0.7c1.4,1.4,3.2,2.1,5.4,2.1c1,0,2-0.1,3.1-0.5l-2.4-2.4H191z"/>
		<path class="st3" d="M168.2,55.9c1.7,1.3,3.7,2,6.1,2c3,0,5.4-1,7.4-2.9h-14.5C167.5,55.4,167.8,55.7,168.2,55.9z"/>
		<polygon class="st3" points="130.2,55.7 130.5,55.4 130.2,55 		"/>
		<path class="st3" d="M98.2,53.3c-0.2,0-0.3,0-0.5-0.1v4.1c2.9-1.1,5.1-3.4,6.7-7.1l-1.2-0.9C101.6,51.9,99.9,53.3,98.2,53.3z"/>
	</g>
	<g>
		<path class="st4" d="M305.6,37.1h5.4l-2.7-2.7h-2.9V33c0-0.5,0-1,0-1.4l-6.5-6.5c-2.8,3.6-4.2,8.3-4.2,14c0,5,1.1,9.1,3.2,12.5
			h10.2l2-2c-0.2-0.2-0.4-0.4-0.5-0.6C307.2,46.1,305.8,42.2,305.6,37.1z"/>
		<path class="st4" d="M281.7,7.9V5.7h-1.3c-0.1,0.2-0.2,0.3-0.3,0.5c-1.7,3.1-3.7,5.8-6,8.3c-0.6,0.7-1.3,1.4-2,2.1
			c-1.9,1.9-4.2,3.7-6.6,5.5v1.4h4.9V44c0,1.4,0,2.6,0,3.7c0.1,1.9,0.2,3.2,0.4,3.8c0,0.1,0,0.1,0.1,0.2h11.4
			c-0.1-0.2-0.1-0.3-0.2-0.5c-0.2-0.6-0.3-2-0.3-4.2V23.6h9v-4h-9V7.9z"/>
		<path class="st4" d="M287.7,51.7h2.2c0.2-0.5,0.5-1,0.7-1.5l-1.2-0.9C288.9,50.2,288.3,51,287.7,51.7z"/>
		<path class="st4" d="M216,20.7c-2.1-1.5-4.9-2.3-8.5-2.3c-3,0-5.8,0.5-8.6,1.4s-4.9,2.3-6.4,4.1c-1.5,1.8-2.3,3.6-2.3,5.6
			c0,1.4,0.6,2.6,1.7,3.6c1.2,1,2.6,1.5,4.3,1.5c1.6,0,2.9-0.5,3.9-1.4s1.5-2.1,1.5-3.4c0-1.1-0.5-2.2-1.5-3.4
			c-0.8-0.8-1.1-1.5-1.1-2.1c0-0.7,0.3-1.2,1-1.7c1.1-0.8,2.6-1.2,4.3-1.2c1.1,0,2,0.3,2.9,0.8c0.9,0.6,1.5,1.2,1.8,1.9
			c0.3,0.7,0.5,2.5,0.5,5.4v3.8c-1,0.5-2,1-3,1.4c-6.7,3.2-11.1,5.8-13.2,7.8c-2.5,2.3-3.7,4.9-3.7,7.8c0,1.8,0.5,3.3,1.5,4.6h6.7
			h7.5c1.4-0.9,2.8-2,4.2-3.2c0.2,1.3,0.5,2.4,1.1,3.2h7.8h1.1V54v-2.2V24.1C218.6,22.9,217.5,21.8,216,20.7z M202.1,42.4
			c1.4-1.9,3.4-3.7,6.1-5.4c0.4-0.2,0.8-0.5,1.2-0.7v12.7c-1.8,1.5-3.4,2.3-4.7,2.3c-1.2,0-2.2-0.4-2.8-1.1c-0.9-0.9-1.3-2-1.3-3.3
			C200.5,45.3,201,43.8,202.1,42.4z"/>
		<path class="st4" d="M175.9,10.4V5.7h-1.3c-1.8,3.3-3.9,6.2-6.2,8.9c-1.1,1.2-2.4,2.5-3.7,3.6c-1.5,1.4-3.2,2.7-5,3.9v1.4h3.1h1.9
			v5.6V44c0,4,0.1,6.5,0.4,7.5c0.4,1.3,1.1,2.5,2.2,3.6h14.5c1.3-1.2,2.4-2.9,3.2-4.9l-1.2-0.9c-1.6,2.7-3.2,4-5,4
			c-0.4,0-0.9-0.2-1.4-0.6c-0.5-0.4-0.9-0.9-1.1-1.5c-0.2-0.6-0.3-2-0.3-4.2V23.6h9v-4h-9V10.4z"/>
		<path class="st4" d="M130.2,55.7l0.1,2.7h1.3c0.2-0.5,0.5-0.9,0.7-1.2l-1.8-1.8L130.2,55.7z"/>
		<path class="st4" d="M95.7,51.2c-0.2-0.6-0.3-2-0.3-4.2v-9v-0.3H84.1v0.3V44c0,4,0.1,6.5,0.4,7.5c0.5,1.6,1.5,3.1,3.2,4.5
			c1.7,1.3,3.7,2,6.1,2c1.4,0,2.8-0.2,4-0.7v-4.1c-0.3-0.1-0.6-0.2-0.9-0.5C96.2,52.3,95.9,51.8,95.7,51.2z"/>
		<path class="st4" d="M70,51c-1.3,0.9-2.8,1.4-4.4,1.4c-2.6,0-4.8-1.1-6.7-3.4c-2.3-2.8-3.6-6.5-4-11.1c0-0.1,0-0.2,0-0.3H44
			c0,0.1,0,0.2,0,0.3c0,0.4,0,0.8,0,1.2c0,5.2,1.2,9.5,3.5,12.9c2.9,4.3,7.1,6.5,12.7,6.5c3.3,0,6.1-0.9,8.6-2.6
			c2.5-1.7,4.7-4.7,6.8-8.9l-1.4-0.9C72.8,48.5,71.3,50.1,70,51z"/>
		<path class="st4" d="M35.2,55.2V56v15.2c0.7-0.6,1.4-1.3,2-2.1c1.4-1.9,2.1-4,2.1-6.3c0-1.2-0.2-2.4-0.5-3.4
			C38.1,57.8,37,56.3,35.2,55.2z"/>
	</g>
	<path d="M35.2,56v15.2c0,0,0,0,0,0L35.2,56L35.2,56z"/>
	<path d="M35.2,55.2V56l0,0L35.2,55.2C35.2,55.2,35.2,55.2,35.2,55.2z"/>
	<path class="st2" d="M35.2,29.6v6.3c-0.4,1.4-1,2.6-1.8,3.8c-0.7,1-1.6,1.8-2.6,2.6l-4.3-4.3l-1.8-1.8c0.1-1,0.1-2.1,0.1-3.4
		c0-4.8-0.6-8.1-1.8-9.9C22.2,21.6,21,21,19.5,21c-1.6,0-2.9,0.8-4,2.4c-0.4,0.6-0.7,1.4-1,2.5l-5.1-5.1c2.6-1.5,5.7-2.3,9.3-2.3
		c2.5,0,5.1,0.5,7.8,1.6h8.8v4.5H32c1.3,1.3,2.2,2.5,2.8,3.6C34.9,28.6,35.1,29.1,35.2,29.6z"/>
	<path class="st2" d="M35.2,56v15.2c-1,0.9-2.2,1.6-3.6,2.1c-3.5,1.3-7.5,2-12,2c-3.4,0-6.5-0.3-9.3-1c-2.8-0.7-4.8-1.6-6-2.8
		s-1.8-2.4-1.8-3.7c0-1.2,0.5-2.3,1.4-3.3c0.9-1,2.7-1.8,5.2-2.5c-1.7-0.8-2.9-1.8-3.8-2.9l7-7c0,0,0.1,0.1,0.1,0.1
		c0.7,0.6,1.9,0.9,3.6,0.9l7-0.1c4.8,0,8.3,0.5,10.6,1.3L35.2,56z M32.7,66.8c0-0.7-0.2-1.2-0.6-1.7c-0.7-0.8-1.8-1.4-3.3-1.7
		c-1.5-0.3-5.4-0.5-11.8-0.5c-2.7,0-4.6,0.2-5.5,0.7c-1.5,0.8-2.3,2-2.3,3.4c0,1.4,0.8,2.6,2.4,3.7c1.6,1.1,4.6,1.7,9,1.7
		c3.8,0,6.7-0.5,8.8-1.5C31.6,70,32.7,68.6,32.7,66.8z"/>
	<path class="st2" d="M35.2,55.2V56l-1.6-1.6c0.4,0.2,0.8,0.3,1.1,0.5C34.9,55,35.1,55.1,35.2,55.2z"/>
	<path class="st2" d="M26.5,37.9l4.3,4.3c-1,0.8-2.2,1.5-3.6,2.1c-1,0.4-1.9,0.8-2.8,1L22,42.8c0.5-0.3,0.9-0.8,1.3-1.3
		c0.1-0.2,0.3-0.4,0.4-0.7L26.5,37.9z"/>
	<path class="st2" d="M22,42.8l2.6,2.6c-1.5,0.5-2.8,0.7-4.1,0.7c-0.1,0-0.7,0-1.9-0.1l2.7-2.7C21.5,43.1,21.8,42.9,22,42.8z"/>
	<path class="st2" d="M21.8,42.6l1.9-1.9c-0.1,0.2-0.3,0.5-0.4,0.7c-0.4,0.5-0.8,1-1.3,1.3L21.8,42.6z"/>
	<path class="st2" d="M21.8,42.6l0.2,0.2c-0.2,0.2-0.5,0.3-0.8,0.5L21.8,42.6z"/>
	<g>
		<path class="st5" d="M359.9,51.7l-3.5-3.5c-0.8,1.5-1.7,2.6-2.6,3.5c-0.6,0.6-1.3,1.1-1.9,1.4c-0.7,0.3-1.4,0.5-2.1,0.5
			c-1.1,0-1.9-0.3-2.5-0.8c-0.4-0.3-0.8-0.7-1.1-1.2c-0.7-1-1.3-2.2-1.8-3.8c-0.2-0.8-0.5-1.8-0.6-3c-0.3-2-0.4-4.6-0.4-7.6
			c0-0.8,0-1.5,0-2.2l-8.8-8.8c-0.3,0.6-0.6,1.2-0.9,1.9c-0.7,1.6-1.2,3.3-1.5,5c-0.4,1.9-0.6,3.8-0.6,5.9c0,4.9,1.1,9.1,3.2,12.6
			c0.1,0.1,0.1,0.2,0.2,0.3c2.8,4.3,6.6,6.5,11.5,6.5c1.9,0,3.6-0.4,5.1-1.2c0.8-0.5,1.7-1.1,2.6-2c0.8-0.7,1.6-1.6,2.5-2.7v5.2v0.8
			l0.7-0.1l7.9-1.5L359.9,51.7z"/>
		<path class="st5" d="M322.7,37.1h3.7c0-1.2-0.1-2.3-0.3-3.4L322.7,37.1z"/>
		<path class="st5" d="M322.9,49c-0.7,0.9-1.5,1.5-2.2,2c-0.4,0.2-0.7,0.5-1.1,0.6c-0.1,0-0.1,0.1-0.2,0.1c-1,0.4-2,0.7-3.1,0.7
			c-1.2,0-2.2-0.2-3.3-0.7c0,0-0.1,0-0.1-0.1c-1-0.5-1.9-1.1-2.8-2l-2,2h-10.2c0,0,0,0.1,0,0.1c0.1,0.1,0.1,0.2,0.2,0.3
			c1.3,2,3,3.6,4.9,4.6c2.2,1.2,4.8,1.9,7.8,1.9c3.3,0,6.1-0.9,8.6-2.6c1.4-1,2.8-2.4,4-4.2c0,0,0,0,0.1-0.1
			c0.2-0.3,0.5-0.7,0.8-1.1c0.7-1,1.3-2.2,1.9-3.5l-1.4-0.9C324.2,47.3,323.5,48.2,322.9,49z"/>
		<path class="st5" d="M287.7,51.7c-1,1-2.1,1.6-3.2,1.6c-0.4,0-0.9-0.2-1.4-0.6c-0.3-0.3-0.6-0.6-0.8-1c0,0,0,0,0-0.1h-11.4
			c0,0,0,0.1,0,0.1c0,0,0,0.1,0,0.1c0.3,0.9,0.8,1.7,1.4,2.5c0.4,0.5,1,1.1,1.6,1.6c1.7,1.3,3.7,2,6.1,2c4.4,0,7.7-2.1,9.9-6.2
			c0,0,0,0,0-0.1L287.7,51.7C287.7,51.7,287.7,51.7,287.7,51.7z"/>
		<path class="st5" d="M132.3,21.8c0,0-0.1,0.1-0.2,0.2c-2,2.4-3,5-3,7.9c0,2.7,0.9,5.1,2.7,7.3c0.2,0.2,0.4,0.4,0.6,0.7h15.4h0.6
			l-9.7-9.7L132.3,21.8z"/>
		<path class="st5" d="M95.4,5.7H94c-1.5,2.8-3.3,5.4-5.3,7.8c-0.3,0.4-0.6,0.7-0.9,1.1c-2.4,2.6-5.3,5.2-8.7,7.6v1.4h4.9v14h11.3
			v-14h3.4h5.6v-4h-9V5.7z"/>
		<path class="st5" d="M71.1,23.2c-2.8-3.1-6.1-4.7-10-4.7c-0.5,0-0.9,0-1.3,0.1c-4,0.3-7.6,2.2-10.7,5.5C46,27.5,44.3,32,44,37.6
			h10.9c0-0.1,0-0.3,0-0.4h20.8C75.4,31,73.9,26.3,71.1,23.2z M54.9,34.4h-0.2V33c0-4.2,0.8-7.5,2.4-9.9c0.8-1.2,1.8-1.9,2.9-2
			c0.2,0,0.3,0,0.5,0c1,0,1.7,0.2,2.3,0.7c1,0.8,1.7,2.1,2.2,3.7c0.5,1.6,0.7,4.6,0.7,8.9H54.9z"/>
		<rect x="35.2" y="20" class="st5" width="3.9" height="4.5"/>
		<path class="st5" d="M35.2,35.9c0.3-1,0.4-2.1,0.4-3.3c0-1-0.1-2.1-0.4-3V35.9z"/>
		<path class="st5" d="M23.7,40.7l2.8-2.8l-1.8-1.8C24.6,38.1,24.2,39.7,23.7,40.7z"/>
		<path class="st5" d="M15.5,41.4c-0.9-1.3-1.4-3.6-1.6-6.8c0-0.5,0-1,0-1.5c0-3.1,0.2-5.5,0.6-7.3l-5.1-5.1
			c-0.8,0.5-1.6,1.1-2.4,1.8c-1,0.9-1.8,1.8-2.5,2.8c-1.4,2-2.1,4.3-2.1,6.8c0,2.8,0.8,5.3,2.4,7.5c1.6,2.2,4.2,3.9,7.9,5.2
			c-3.1,1.3-5.4,2.8-6.8,4.6S3.8,53,3.8,54.8c0,1.6,0.5,3.1,1.5,4.3l7-7l6.2-6.2l2.7-2.7c-0.6,0.3-1.3,0.4-2,0.4
			C17.8,43.7,16.5,42.9,15.5,41.4z"/>
	</g>
</g>
<g id="Layer_2" class="st0">
	<g class="st1">
		<polygon class="st3" points="276.2,-156.2 254.1,-134.1 273.1,-115.2 276.2,-118.3 301.5,-143.6 301.5,-156.2 		"/>
		<polygon class="st6" points="262.1,-174.5 240,-196.6 240,-158.7 243.2,-155.6 243.2,-155.6 262.1,-136.6 281,-155.6 
			262.1,-174.5 		"/>
		<polygon class="st7" points="306.5,-186.7 278.2,-158.4 306.5,-130.1 		"/>
		<polygon class="st5" points="303.1,-177.6 303.1,-171.3 303.1,-139.8 328.3,-139.8 328.3,-146.1 328.3,-202.9 		"/>
		<polygon class="st5" points="281,-193.4 258.9,-215.5 258.9,-177.6 262.1,-174.5 262.1,-174.5 281,-155.5 299.9,-174.5 
			281,-193.4 		"/>
		<polygon class="st3" points="303.1,-215.5 259.1,-215.3 299.9,-174.5 303.1,-177.6 328.3,-202.9 328.3,-215.5 		"/>
		<polygon class="st3" points="233.7,-202.9 233.7,-146.1 233.7,-139.8 258.9,-139.8 258.9,-171.3 258.9,-177.6 258.9,-215.5 
			233.7,-215.5 		"/>
		<polygon class="st6" points="233.7,-139.8 258.9,-139.8 258.9,-146.1 233.7,-171.3 		"/>
		
			<rect x="284.6" y="-211.1" transform="matrix(0.7071 -0.7071 0.7071 0.7071 225.231 153.5273)" class="st6" width="26.7" height="32"/>
		<polygon class="st7" points="303.1,-177.6 303.1,-171.3 328.3,-171.3 328.3,-202.9 		"/>
	</g>
</g>
</svg>
