<?xml version="1.0" encoding="iso-8859-1"?>
<!-- Generator: Adobe Illustrator 22.1.0, SVG Export Plug-In . SVG Version: 6.00 Build 0)  -->
<svg version="1.1" id="Layer_2_copy" xmlns="http://www.w3.org/2000/svg" xmlns:xlink="http://www.w3.org/1999/xlink" x="0px"
	 y="0px" viewBox="0 0 500 367.13" style="enable-background:new 0 0 500 367.13;" xml:space="preserve">
<g>
	<g>
		<path style="fill:#FF0000;" d="M207.488,359.851l13.026-67.198l-14.324-14.324c-0.921,1.236-1.796,2.301-2.605,3.129
			c-3.635,3.732-8.28,6.372-13.91,7.931c-5.63,1.562-17.807,2.341-36.53,2.341h-41.702v68.121H207.488z"/>
		<path style="opacity:0.5;enable-background:new    ;" d="M207.488,359.851l13.026-67.198l-14.324-14.324
			c-0.921,1.236-1.796,2.301-2.605,3.129c-3.635,3.732-8.28,6.372-13.91,7.931c-5.63,1.562-17.807,2.341-36.53,2.341h-41.702v68.121
			H207.488z"/>
		<path style="fill:#FF0000;" d="M139.294,211.415l-19.095-19.095c-1.374,2.969-2.812,5.943-4.363,8.927
			c-1.234,2.374-2.747,5.023-4.393,7.805v30.227v17.858c13.166-13.649,24.905-26.426,35.22-38.334l-7.379-7.379L139.294,211.415z"/>
		<path style="opacity:0.5;enable-background:new    ;" d="M139.294,211.415l-19.095-19.095c-1.374,2.969-2.812,5.943-4.363,8.927
			c-1.234,2.374-2.747,5.023-4.393,7.805v30.227v17.858c13.166-13.649,24.905-26.426,35.22-38.334l-7.379-7.379L139.294,211.415z"/>
		<path style="fill:#000099;" d="M130.534,164.475c-2.575,9.204-6.002,18.485-10.335,27.845l19.095,19.095l-0.009,0.009l7.379,7.379
			c20.714-23.91,35.741-44.347,44.962-61.237c12.825-23.748,19.241-47.148,19.241-70.204c0-1.022-0.072-2.06-0.126-3.094
			L130.534,164.475z"/>
		<path style="fill:#000099;" d="M227.246,257.927h-9.358c-4.582,9.302-8.476,16.08-11.697,20.401l14.324,14.324L227.246,257.927z"
			/>
		<path style="fill:#FF0000;" d="M48.881,23.92C29.815,39.871,15.6,64.48,6.241,97.762l9.62,3.383
			C30.594,74.45,51.306,61.101,78.004,61.101c12.673,0,23.805,3.695,33.44,10.985V0.141C87.923,0.859,67.047,8.727,48.881,23.92z"/>
		<path style="fill:#FF0000;" d="M111.444,209.051c-16.347,27.63-52.947,75.341-109.877,143.205l7.594,7.594h102.283V291.73H76.962
			c12.435-12.106,23.891-23.614,34.481-34.593v-17.858V209.051z"/>
		<path style="fill:#FF0000;" d="M0,354.13v5.72h9.161l-7.594-7.594C1.035,352.891,0.536,353.493,0,354.13z"/>
		<path style="opacity:0.5;enable-background:new    ;" d="M0,354.13v5.72h9.161l-7.594-7.594C1.035,352.891,0.536,353.493,0,354.13
			z"/>
		<path style="fill:#000099;" d="M111.444,72.086c2.751,2.081,5.399,4.411,7.903,7.086c11.266,12.049,16.896,27.171,16.896,45.371
			c0,13.141-1.939,26.454-5.709,39.931l80.207-80.207c-0.618-11.764-4.705-24.293-12.356-37.597
			c-8.317-14.471-19.845-25.871-34.578-34.192C149.068,4.159,132.776,0,114.926,0c-1.178,0-2.317,0.106-3.482,0.141V72.086z"/>
		<path style="opacity:0.5;enable-background:new    ;" d="M111.444,72.086c2.751,2.081,5.399,4.411,7.903,7.086
			c11.266,12.049,16.896,27.171,16.896,45.371c0,13.141-1.939,26.454-5.709,39.931l80.207-80.207
			c-0.618-11.764-4.705-24.293-12.356-37.597c-8.317-14.471-19.845-25.871-34.578-34.192C149.068,4.159,132.776,0,114.926,0
			c-1.178,0-2.317,0.106-3.482,0.141V72.086z"/>
	</g>
	<g>
		<path style="fill:none;" d="M419.716,116.999c0-0.005,0-0.01,0-0.015c-0.171-22.124-0.45-36.075-0.836-41.843
			c-1.74-24.091-5.898-40.386-12.482-48.881c-4.333-5.546-11.354-8.32-21.061-8.32c-7.457,0-13.349,2.079-17.682,6.241
			c-6.416,6.069-10.749,16.768-13,32.109c-1.985,13.492-3.092,56.532-3.33,129.085c0,0.005,0,0.01,0,0.015
			c-0.033,9.936-0.049,20.412-0.049,31.456c0,29.806,0.623,53.694,1.858,71.76c0.006,0.081,0.011,0.163,0.017,0.244
			c0.832,12.077,1.937,21.561,3.325,28.361c2.6,12.308,6.328,20.541,11.179,24.699c4.851,4.162,11.266,6.241,19.24,6.241
			c8.667,0,15.169-2.771,19.503-8.32c7.282-9.707,11.441-24.702,12.482-44.981l0.514-55.571l0.52-56.234
			C419.914,156.131,419.848,134.12,419.716,116.999z"/>
		<polygon style="fill:#000099;" points="325.274,211.424 280.268,256.429 280.269,256.43 325.275,211.424 		"/>
		<path style="fill:#FF0000;" d="M353.134,288.606v72.207c0.006,0.002,0.011,0.004,0.017,0.007v-71.97
			C353.145,288.769,353.139,288.687,353.134,288.606z"/>
		<path style="fill:#000099;" d="M351.275,216.846c0-11.044,0.017-21.52,0.049-31.456l-26.031,26.031l-0.008-0.008l-0.01,0.01
			l-0.001-0.001l-45.006,45.006c1.042,4.508,2.15,9,3.403,13.459c5.723,19.59,12.395,35.273,20.02,47.06
			c10.574,16.12,22.707,28.515,36.405,37.181c4.186,2.649,8.544,4.843,13.038,6.683v-72.207
			C351.898,270.54,351.275,246.652,351.275,216.846z"/>
		<path style="opacity:0.5;enable-background:new    ;" d="M351.275,216.846c0-11.044,0.017-21.52,0.049-31.456l-26.031,26.031
			l-0.008-0.008l-0.01,0.01l-0.001-0.001l-45.006,45.006c1.042,4.508,2.15,9,3.403,13.459c5.723,19.59,12.395,35.273,20.02,47.06
			c10.574,16.12,22.707,28.515,36.405,37.181c4.186,2.649,8.544,4.843,13.038,6.683v-72.207
			C351.898,270.54,351.275,246.652,351.275,216.846z"/>
		<path style="fill:#000099;" d="M419.393,239.279l-0.514,55.571c-1.041,20.279-5.2,35.274-12.482,44.981
			c-4.333,5.549-10.836,8.32-19.503,8.32c-7.974,0-14.39-2.079-19.24-6.241c-4.851-4.159-8.579-12.391-11.179-24.699
			c-1.388-6.8-2.493-16.284-3.325-28.361v71.97c10.201,4.173,21.175,6.31,32.965,6.31c14.907,0,28.686-3.51,41.343-10.531
			c12.651-7.02,23.961-16.51,33.93-28.468c9.963-11.961,17.894-27.302,23.792-46.022c4.467-13.79,7.869-28.084,10.316-42.831
			H419.393z"/>
		<path style="fill:#000099;" d="M273.495,159.645c-0.668,9.167-1.003,18.527-1.003,28.082c0,23.503,2.62,46.397,7.776,68.702
			l45.006-45.006L273.495,159.645z"/>
		<path style="fill:#FF0000;" d="M419.716,116.985c0,0.005,0,0.01,0,0.015l55.996-55.996c-8.043-16.119-18.787-29.486-32.261-40.073
			c-15.851-12.44-32.771-19.3-50.749-20.647l71.858,71.858L419.716,116.985z"/>
		<path style="fill:#FF0000;" d="M325.286,211.414l0.008,0.008l26.031-26.031c0-0.005,0-0.01,0-0.015L325.286,211.414z"/>
		<path style="fill:#000099;" d="M325.275,211.424l0.01-0.01l-51.788-51.788c0,0.007-0.001,0.013-0.001,0.02L325.275,211.424
			L325.275,211.424z"/>
		<path style="opacity:0.5;enable-background:new    ;" d="M325.275,211.424l0.01-0.01l-51.788-51.788
			c0,0.007-0.001,0.013-0.001,0.02L325.275,211.424L325.275,211.424z"/>
		
			<rect x="325.273" y="211.419" transform="matrix(0.7071 -0.7071 0.7071 0.7071 -54.2236 291.931)" style="fill:#000099;" width="0.015" height="0.001"/>
		
			<rect x="325.273" y="211.419" transform="matrix(0.7071 -0.7071 0.7071 0.7071 -54.2236 291.931)" style="opacity:0.5;enable-background:new    ;" width="0.015" height="0.001"/>
		
			<rect x="325.273" y="211.419" transform="matrix(0.7071 -0.7071 0.7071 0.7071 -54.2236 291.931)" style="opacity:0.5;enable-background:new    ;" width="0.015" height="0.001"/>
		<path style="fill:#FF0000;" d="M325.286,211.414l26.039-26.039c0.238-72.553,1.345-115.592,3.33-129.085
			c2.251-15.341,6.584-26.04,13-32.109c4.333-4.162,10.225-6.241,17.682-6.241c9.707,0,16.728,2.774,21.061,8.32
			c6.584,8.495,10.742,24.79,12.482,48.881c0.387,5.768,0.666,19.719,0.836,41.843l44.844-44.844L392.701,0.283
			C390.519,0.119,388.329,0,386.115,0c-20.107,0-39.173,7.064-57.204,21.189c-18.025,14.131-31.461,34.453-40.295,60.973
			c-8.07,24.066-13.107,49.887-15.119,77.463L325.286,211.414L325.286,211.414z"/>
		<path style="opacity:0.5;enable-background:new    ;" d="M325.286,211.414l26.039-26.039c0.238-72.553,1.345-115.592,3.33-129.085
			c2.251-15.341,6.584-26.04,13-32.109c4.333-4.162,10.225-6.241,17.682-6.241c9.707,0,16.728,2.774,21.061,8.32
			c6.584,8.495,10.742,24.79,12.482,48.881c0.387,5.768,0.666,19.719,0.836,41.843l44.844-44.844L392.701,0.283
			C390.519,0.119,388.329,0,386.115,0c-20.107,0-39.173,7.064-57.204,21.189c-18.025,14.131-31.461,34.453-40.295,60.973
			c-8.07,24.066-13.107,49.887-15.119,77.463L325.286,211.414L325.286,211.414z"/>
		<path style="fill:#000099;" d="M419.914,183.044l-0.52,56.234h76.103c2.966-17.876,4.504-36.429,4.504-55.714
			c0-38.481-5.811-73.926-17.42-106.344c-2.01-5.691-4.309-11.087-6.869-16.218l-55.996,55.996
			C419.848,134.12,419.914,156.131,419.914,183.044z"/>
		<path style="opacity:0.5;enable-background:new    ;" d="M419.914,183.044l-0.52,56.234h76.103
			c2.966-17.876,4.504-36.429,4.504-55.714c0-38.481-5.811-73.926-17.42-106.344c-2.01-5.691-4.309-11.087-6.869-16.218
			l-55.996,55.996C419.848,134.12,419.914,156.131,419.914,183.044z"/>
	</g>
</g>
</svg>
