<?xml version="1.0" encoding="utf-8"?>
<!-- Generator: Adobe Illustrator 22.1.0, SVG Export Plug-In . SVG Version: 6.00 Build 0)  -->
<svg version="1.1" xmlns="http://www.w3.org/2000/svg" xmlns:xlink="http://www.w3.org/1999/xlink" x="0px" y="0px"
	 viewBox="0 0 375 214.7" style="enable-background:new 0 0 375 214.7;" xml:space="preserve">
<style type="text/css">
	.st0{fill:#000099;}
	.st1{fill:#00004C;}
	.st2{fill:#7F0000;}
	.st3{fill:#FF0000;}
</style>
<g id="Layer_1">
	<g>
		<g>
			<path d="M42.8,34.3h19.8v6.9H51.4c2.1,2.1,3.5,3.9,4.3,5.6c1,2.3,1.5,4.6,1.5,7.1c0,4.2-1.2,7.8-3.5,10.9
				c-2.3,3.1-5.5,5.5-9.5,7.2c-4,1.7-7.5,2.6-10.6,2.6c-0.3,0-2.8-0.1-7.5-0.3c-1.9,0-3.5,0.6-4.7,1.9c-1.3,1.2-1.9,2.7-1.9,4.4
				c0,1.5,0.6,2.7,1.7,3.7c1.2,1,3,1.4,5.6,1.4l10.9-0.1c8.8,0,14.8,1,18.2,2.9c4.7,2.7,7.1,6.8,7.1,12.4c0,3.6-1.1,6.8-3.3,9.7
				c-2.2,2.9-5,5.1-8.6,6.4c-5.4,2.1-11.6,3.1-18.7,3.1c-5.3,0-10.1-0.5-14.5-1.5c-4.4-1-7.5-2.5-9.4-4.3c-1.9-1.8-2.8-3.7-2.8-5.7
				c0-1.9,0.7-3.7,2.2-5.2c1.4-1.5,4.1-2.8,8.1-3.9c-5.4-2.7-8.2-6.4-8.2-11.2c0-2.9,1.1-5.7,3.3-8.4c2.2-2.7,5.7-5.1,10.6-7.1
				c-5.6-2.1-9.7-4.8-12.2-8.1c-2.5-3.4-3.8-7.2-3.8-11.6c0-5.7,2.3-10.7,7-14.9c4.7-4.2,10.7-6.3,18.1-6.3
				C34.6,31.9,38.7,32.7,42.8,34.3z M28.2,101c-4.3,0-7.1,0.4-8.5,1.1c-2.4,1.3-3.6,3.1-3.6,5.3c0,2.1,1.2,4.1,3.7,5.8
				c2.5,1.7,7.1,2.6,13.9,2.6c5.8,0,10.4-0.8,13.7-2.3c3.3-1.5,5-3.7,5-6.5c0-1-0.3-1.9-0.9-2.6c-1.1-1.3-2.8-2.1-5.1-2.6
				C44.2,101.3,38.1,101,28.2,101z M31.9,35.8c-2.4,0-4.5,1.2-6.2,3.7c-1.7,2.5-2.5,7.5-2.5,15.2c0,6.2,0.8,10.5,2.5,12.8
				c1.7,2.3,3.6,3.5,5.9,3.5c2.5,0,4.6-1.2,6.3-3.5c1.7-2.3,2.5-6.8,2.5-13.4c0-7.5-0.9-12.6-2.8-15.3
				C36.3,36.8,34.4,35.8,31.9,35.8z"/>
			<path d="M117.3,60.9H85.1c0.4,7.8,2.5,13.9,6.2,18.5c2.9,3.5,6.4,5.2,10.4,5.2c2.5,0,4.8-0.7,6.8-2.1c2.1-1.4,4.3-3.9,6.6-7.6
				l2.1,1.4c-3.2,6.5-6.7,11.1-10.6,13.8c-3.9,2.7-8.3,4.1-13.4,4.1c-8.7,0-15.3-3.4-19.8-10.1C70,78.7,68.2,72,68.2,64
				c0-9.8,2.6-17.6,7.9-23.4c5.3-5.8,11.5-8.7,18.6-8.7c5.9,0,11.1,2.4,15.5,7.3C114.6,44.1,116.9,51.3,117.3,60.9z M101.8,56.7
				c0-6.7-0.4-11.4-1.1-13.9c-0.7-2.5-1.9-4.4-3.4-5.7c-0.9-0.8-2.1-1.1-3.5-1.1c-2.2,0-4,1.1-5.3,3.2c-2.5,3.7-3.7,8.8-3.7,15.3
				v2.2H101.8z"/>
			<path d="M146,12.1v21.5H160v6.2H146v36.3c0,3.4,0.2,5.6,0.5,6.6c0.3,1,0.9,1.8,1.7,2.4c0.8,0.6,1.5,0.9,2.2,0.9
				c2.7,0,5.3-2.1,7.7-6.2l1.9,1.4c-3.4,8-8.9,12.1-16.5,12.1c-3.7,0-6.9-1-9.5-3.1c-2.6-2.1-4.2-4.4-4.9-6.9
				c-0.4-1.4-0.6-5.3-0.6-11.6V39.8h-7.7v-2.2c5.3-3.7,9.8-7.6,13.5-11.7c3.7-4.1,6.9-8.7,9.7-13.8H146z"/>
		</g>
		<g>
			<path d="M30.5,133.1v13.8c4-6.3,7.6-10.5,10.6-12.5c3-2.1,6-3.1,8.8-3.1c2.4,0,4.4,0.7,5.8,2.2c1.5,1.5,2.2,3.6,2.2,6.3
				c0,2.9-0.7,5.2-2.1,6.8c-1.4,1.6-3.1,2.4-5.1,2.4c-2.3,0-4.3-0.7-6-2.2c-1.7-1.5-2.7-2.3-3-2.5c-0.4-0.3-0.9-0.4-1.5-0.4
				c-1.3,0-2.4,0.5-3.6,1.4c-1.8,1.5-3.1,3.6-4,6.3c-1.4,4.2-2.1,8.8-2.1,13.9v14l0.1,3.6c0,2.5,0.2,4.1,0.5,4.7
				c0.5,1.2,1.3,2,2.3,2.6c1,0.5,2.7,0.9,5.2,1v2.3H5.6v-2.3c2.6-0.2,4.4-0.9,5.4-2.2c0.9-1.2,1.4-4.5,1.4-9.8V146
				c0-3.5-0.2-5.7-0.5-6.6c-0.4-1.2-1.1-2.1-1.9-2.7c-0.8-0.6-2.3-1-4.4-1.2v-2.4H30.5z"/>
			<path d="M111.4,161.3H78.1c0.4,8.1,2.5,14.4,6.4,19.1c3,3.6,6.6,5.4,10.8,5.4c2.6,0,5-0.7,7.1-2.2c2.1-1.5,4.4-4.1,6.8-7.8
				l2.2,1.4c-3.3,6.7-6.9,11.5-10.9,14.3c-4,2.8-8.6,4.2-13.9,4.2c-9,0-15.8-3.5-20.5-10.4c-3.7-5.6-5.6-12.5-5.6-20.8
				c0-10.1,2.7-18.2,8.2-24.2c5.5-6,11.9-9,19.3-9c6.2,0,11.5,2.5,16,7.6C108.7,143.9,111.1,151.4,111.4,161.3z M95.4,157
				c0-7-0.4-11.8-1.1-14.4c-0.8-2.6-1.9-4.6-3.5-5.9c-0.9-0.8-2.1-1.2-3.6-1.2c-2.3,0-4.1,1.1-5.5,3.3c-2.6,3.9-3.8,9.1-3.8,15.9
				v2.3H95.4z"/>
			<path d="M155.5,131.4l1,20.7h-2.2c-2.6-6.2-5.4-10.4-8.2-12.6c-2.8-2.3-5.7-3.4-8.5-3.4c-1.8,0-3.3,0.6-4.6,1.8
				c-1.3,1.2-1.9,2.6-1.9,4.1c0,1.2,0.4,2.3,1.3,3.4c1.4,1.8,5.3,4.8,11.6,9.1c6.4,4.3,10.6,8,12.6,11c2,3,3,6.4,3,10.1
				c0,3.4-0.8,6.7-2.5,9.9s-4.1,5.7-7.2,7.5c-3.1,1.7-6.5,2.6-10.2,2.6c-2.9,0-6.8-0.9-11.6-2.7c-1.3-0.5-2.2-0.7-2.7-0.7
				c-1.4,0-2.6,1.1-3.6,3.3h-2.1l-1-21.8h2.2c2,5.7,4.6,10,8,12.9c3.4,2.9,6.6,4.3,9.7,4.3c2.1,0,3.8-0.6,5.1-1.9
				c1.3-1.3,2-2.8,2-4.6c0-2.1-0.7-3.9-2-5.4c-1.3-1.5-4.2-3.8-8.7-6.9c-6.6-4.6-10.9-8.1-12.9-10.5c-2.9-3.6-4.3-7.5-4.3-11.8
				c0-4.7,1.6-8.9,4.8-12.7c3.2-3.8,7.9-5.7,14-5.7c3.3,0,6.5,0.8,9.6,2.4c1.2,0.7,2.1,1,2.9,1c0.8,0,1.4-0.2,1.9-0.5
				c0.5-0.3,1.2-1.2,2.3-2.8H155.5z"/>
			<path d="M225.6,133.1v47.6c0,4.6,0.4,7.5,1.3,8.7c0.9,1.1,2.6,1.9,5.3,2.2v2.3h-24.8v-8.1c-2.9,3.5-5.8,6-8.7,7.6
				c-2.9,1.6-6.2,2.4-9.8,2.4c-3.4,0-6.5-1.1-9.1-3.2s-4.5-4.6-5.4-7.4c-0.9-2.8-1.4-7.7-1.4-14.8v-24.1c0-4.6-0.4-7.5-1.3-8.6
				c-0.8-1.1-2.6-1.9-5.3-2.2v-2.4h24.8v41.6c0,4.3,0.2,7.1,0.6,8.4c0.4,1.3,1.1,2.2,2,2.9c0.9,0.7,1.9,1,3.1,1c1.6,0,3-0.4,4.2-1.2
				c1.7-1.1,3.8-3.4,6.2-6.8v-32.5c0-4.6-0.4-7.5-1.3-8.6c-0.8-1.1-2.6-1.9-5.3-2.2v-2.4H225.6z"/>
			<path d="M262.8,105.7v75.6c0,4.3,0.5,7,1.5,8.2c1,1.2,2.9,1.9,5.9,2v2.3h-32.8v-2.3c2.7-0.1,4.7-0.9,6-2.3c0.9-1,1.3-3.6,1.3-7.9
				v-62.9c0-4.2-0.5-7-1.5-8.2c-1-1.2-2.9-1.9-5.8-2v-2.4H262.8z"/>
			<path d="M298.1,110.9v22.2h14.4v6.4h-14.4v37.5c0,3.5,0.2,5.8,0.5,6.8c0.3,1,0.9,1.8,1.7,2.5c0.8,0.6,1.6,0.9,2.3,0.9
				c2.8,0,5.5-2.1,8-6.4l2,1.4c-3.5,8.3-9.2,12.5-17.1,12.5c-3.9,0-7.1-1.1-9.8-3.2c-2.7-2.1-4.4-4.5-5.1-7.2
				c-0.4-1.5-0.7-5.5-0.7-12v-32.8h-7.9v-2.3c5.5-3.9,10.1-7.9,13.9-12.2c3.8-4.2,7.2-9,10-14.2H298.1z"/>
			<path d="M354.7,131.4l1,20.7h-2.2c-2.6-6.2-5.4-10.4-8.2-12.6c-2.8-2.3-5.7-3.4-8.5-3.4c-1.8,0-3.3,0.6-4.6,1.8
				c-1.3,1.2-1.9,2.6-1.9,4.1c0,1.2,0.4,2.3,1.3,3.4c1.4,1.8,5.3,4.8,11.6,9.1c6.4,4.3,10.6,8,12.6,11c2,3,3,6.4,3,10.1
				c0,3.4-0.8,6.7-2.5,9.9c-1.7,3.3-4.1,5.7-7.2,7.5c-3.1,1.7-6.5,2.6-10.2,2.6c-2.9,0-6.8-0.9-11.6-2.7c-1.3-0.5-2.2-0.7-2.7-0.7
				c-1.4,0-2.6,1.1-3.6,3.3H319l-1-21.8h2.2c2,5.7,4.6,10,8,12.9c3.4,2.9,6.6,4.3,9.7,4.3c2.1,0,3.8-0.6,5.1-1.9
				c1.3-1.3,2-2.8,2-4.6c0-2.1-0.7-3.9-2-5.4c-1.3-1.5-4.2-3.8-8.7-6.9c-6.6-4.6-10.9-8.1-12.9-10.5c-2.9-3.6-4.3-7.5-4.3-11.8
				c0-4.7,1.6-8.9,4.8-12.7c3.2-3.8,7.9-5.7,14-5.7c3.3,0,6.5,0.8,9.6,2.4c1.2,0.7,2.1,1,2.9,1c0.8,0,1.4-0.2,1.9-0.5
				c0.5-0.3,1.2-1.2,2.3-2.8H354.7z"/>
		</g>
	</g>
</g>
<g id="Layer_2">
	<path class="st0" d="M355.9,165.6c2,3,3,6.4,3,10.1c0,3.4-0.8,6.7-2.5,9.9c-1.7,3.2-4.1,5.7-7.2,7.5c-3.1,1.7-6.5,2.6-10.2,2.6
		c-2.9,0-6.8-0.9-11.6-2.7c-1.3-0.5-2.2-0.7-2.7-0.7c0,0-0.1,0-0.1,0v-9.6c1.1,1.5,2.3,2.8,3.6,3.9c3.4,2.9,6.6,4.3,9.6,4.3
		c2.1,0,3.8-0.6,5.1-1.9s2-2.8,2-4.7c0-2.1-0.7-3.9-2-5.4c-1.3-1.5-4.2-3.8-8.7-6.9c-4.1-2.8-7.3-5.3-9.6-7.3V148h9.6
		c2,1.7,5.1,3.9,9.1,6.6C349.7,158.9,353.9,162.6,355.9,165.6z"/>
	<path class="st0" d="M355.5,148l0.2,4.2h-2.2c-0.6-1.5-1.3-2.9-2-4.2H355.5z"/>
	<path class="st1" d="M354.7,131.4l0.8,16.6h-4c-2-3.9-4.1-6.7-6.2-8.4c-2.8-2.2-5.7-3.4-8.5-3.4c-1.8,0-3.3,0.6-4.6,1.8
		c-1.3,1.2-1.9,2.6-1.9,4.1c0,1.2,0.4,2.3,1.3,3.4c0.5,0.7,1.4,1.5,2.6,2.5h-9.6v-13.5c3-2.1,6.7-3.2,11.3-3.2
		c3.3,0,6.5,0.8,9.6,2.4c1.2,0.7,2.1,1,2.9,1c0.8,0,1.4-0.2,1.9-0.5c0.5-0.3,1.2-1.2,2.3-2.8H354.7z"/>
	<path class="st0" d="M324.6,182.7v9.6c-1.4,0-2.6,1.1-3.5,3.2H319l-1-21.8h2.2C321.4,177.2,322.8,180.2,324.6,182.7z"/>
	<path class="st0" d="M324.6,148v16.7c-1.4-1.2-2.5-2.3-3.2-3.2c-2.9-3.6-4.3-7.5-4.3-11.8c0-0.6,0-1.1,0.1-1.7H324.6z"/>
	<path class="st1" d="M324.6,134.5V148h-7.4c0.3-4,1.9-7.7,4.8-11C322.7,136,323.6,135.2,324.6,134.5z"/>
	<polygon class="st1" points="312.5,134.1 312.5,139.6 307.1,139.6 	"/>
	<polygon class="st2" points="312.5,134.1 312.5,134.1 307.1,139.6 306.9,139.6 307,139.4 	"/>
	<polygon class="st2" points="312.5,133.1 312.5,134.1 307,139.4 300.7,133.1 	"/>
	<path class="st1" d="M310.6,180.8l1.9,1.4c-1,2.3-2.1,4.3-3.5,6h-6.5v-1C305.4,187.3,308,185.1,310.6,180.8z"/>
	<path class="st1" d="M302.6,188.3h6.5c-3.4,4.3-7.9,6.5-13.6,6.5c-3.9,0-7.1-1.1-9.8-3.2c-1.3-1-2.3-2.1-3.2-3.2H302.6z"/>
	<polygon class="st2" points="307,139.4 306.9,139.6 306.5,139.6 300.1,133.1 300.7,133.1 	"/>
	<polygon class="st0" points="306.5,139.6 298.1,139.6 298.1,148.4 279.9,166.7 279.9,151.6 298.4,133.1 300.1,133.1 	"/>
	<path class="st1" d="M302.6,187.3v1h-20.1c-0.9-1.2-1.6-2.6-2-3.9c-0.4-1.5-0.6-5.5-0.6-12v-5.7l18.2-18.3v28.7
		c0,3.5,0.2,5.8,0.5,6.8c0.3,1,0.9,1.8,1.7,2.5C301.1,187,301.9,187.3,302.6,187.3z"/>
	<path class="st0" d="M298.4,133.1l-18.5,18.5v-12.1h-7.9v-2.3c5.5-3.9,10.1-7.9,14-12.2c1-1.1,1.9-2.2,2.8-3.3l9.3,9.3v2H298.4z"/>
	<path class="st2" d="M298.1,130.5v0.6l-9.3-9.3c0.1-0.1,0.2-0.2,0.2-0.3L298.1,130.5z"/>
	<path class="st2" d="M298.1,110.9v19.7l-9.1-9.1c2.6-3.3,4.9-6.8,7-10.6H298.1z"/>
	<path class="st1" d="M270.1,191.6v2.3h-9.6l-3.9-3.9l1.7-1.7h5.2c0.2,0.5,0.4,0.9,0.7,1.2C265.2,190.7,267.2,191.4,270.1,191.6z"/>
	<path class="st1" d="M263.6,188.3h-5.2l4.4-4.4C262.9,185.8,263.2,187.2,263.6,188.3z"/>
	<path class="st0" d="M262.8,183.9l-4.4,4.4h-3.5l-5.9-5.9l13.7-13.7v12.6C262.8,182.2,262.8,183.1,262.8,183.9z"/>
	<path class="st0" d="M262.8,105.7v63l-13.7,13.7l-4.5-4.5v-59.6c0-4.2-0.5-7-1.5-8.2c-1-1.2-2.9-1.9-5.8-2.1v-2.4H262.8z"/>
	<polygon class="st3" points="260.5,193.9 252.5,193.9 256.4,190 256.5,190.2 256.7,190 	"/>
	<polygon class="st0" points="258.4,188.3 256.7,190 256.5,189.9 254.9,188.3 	"/>
	<polygon class="st0" points="256.7,190 256.5,190.2 256.4,190 256.5,189.9 	"/>
	<polygon class="st0" points="256.5,189.9 256.4,190 254.7,188.3 254.9,188.3 	"/>
	<path class="st2" d="M254.7,188.3l1.7,1.7l-3.9,3.9h-14.4l3.2-3.2c0.7-0.4,1.4-0.8,1.9-1.4c0.2-0.2,0.4-0.5,0.5-0.9H254.7z"/>
	<polygon class="st0" points="254.9,188.3 254.7,188.3 244.6,178.1 244.6,177.9 249.1,182.4 	"/>
	<path class="st2" d="M254.7,188.3h-10.9c0.5-1.3,0.8-3.7,0.8-7v-3.2L254.7,188.3z"/>
	<path class="st2" d="M243.7,188.3L243.7,188.3c-0.1,0.4-0.3,0.7-0.5,0.9c-0.5,0.6-1.1,1.1-1.9,1.4L243.7,188.3z"/>
	<path class="st2" d="M241.4,190.7l-3.2,3.2h-0.9v-2.3C238.9,191.5,240.2,191.2,241.4,190.7z"/>
	<path class="st2" d="M232.2,191.6v2.3h-24.8v-8.1c-2.9,3.5-5.8,6-8.7,7.6c-0.4,0.2-0.8,0.4-1.2,0.6v-7.1c1.3-0.1,2.5-0.5,3.6-1.2
		c1.7-1.1,3.8-3.4,6.2-6.8v-32.5c0-2.5-0.1-4.4-0.4-5.9l18.6,18.7v21.6c0,4.6,0.4,7.5,1.3,8.7C227.8,190.5,229.5,191.3,232.2,191.6z
		"/>
	<polygon points="225.6,159 225.6,159.1 207,140.4 	"/>
	<path class="st0" d="M225.6,133.1V159L207,140.4c0,0,0,0,0,0c-0.2-1.3-0.5-2.1-0.9-2.7c-0.7-0.9-1.9-1.5-3.7-1.9l-1.6-1.6v-1.1
		H225.6z"/>
	<path d="M202.4,135.8c0,0-0.1,0-0.1,0l-1.4-1.4v-0.2L202.4,135.8z"/>
	<path class="st2" d="M200.8,134.4l1.4,1.4c-0.4-0.1-0.9-0.2-1.4-0.2V134.4z"/>
	<path class="st3" d="M197.5,186.9v7.1c-2.6,1.2-5.5,1.8-8.6,1.8c-0.8,0-1.5-0.1-2.2-0.2V144v-10.9h4.6v41.6c0,4.3,0.2,7.1,0.6,8.4
		c0.4,1.3,1.1,2.2,1.9,2.9c0.9,0.7,1.9,1,3.1,1C197.1,186.9,197.3,186.9,197.5,186.9z"/>
	<path class="st3" d="M186.7,144v51.6c-2.5-0.4-4.8-1.4-6.9-3c-2.7-2.1-4.4-4.6-5.4-7.4c-0.9-2.8-1.4-7.7-1.4-14.8v-12.7L186.7,144z
		"/>
	<path class="st3" d="M186.7,133.1V144l-13.7,13.7v-11.4c0-4.6-0.4-7.4-1.3-8.6c-0.8-1.1-2.6-1.9-5.3-2.2v-2.4H186.7z"/>
	<rect x="154.2" y="33.6" class="st3" width="5.8" height="6.2"/>
	<path class="st3" d="M158.1,79.7l1.9,1.4c-1.3,3.1-2.9,5.5-4.8,7.4l-1-1v-3C155.5,83.5,156.8,81.9,158.1,79.7z"/>
	<path class="st3" d="M159.6,175.7c0,0.5,0,1.1-0.1,1.6l-3-3l2.6-2.6C159.5,173,159.6,174.3,159.6,175.7z"/>
	<path class="st2" d="M156.6,174.3l3,3c-0.2,2.8-1.1,5.6-2.5,8.3c-0.7,1.3-1.4,2.4-2.3,3.5l-6.6-6.4L156.6,174.3z"/>
	<path class="st3" d="M159.2,171.6C159.2,171.7,159.2,171.7,159.2,171.6l-2.6,2.7l0,0L159.2,171.6z"/>
	<path class="st3" d="M159.2,171.6l-2.7,2.7l-9.5-9.5v-8.1c1.9,1.4,3.5,2.6,4.9,3.9c2.1,1.8,3.6,3.5,4.7,5
		C157.9,167.5,158.8,169.5,159.2,171.6z"/>
	<polygon class="st2" points="156.6,174.3 148.2,182.7 156.6,174.3 	"/>
	<polygon class="st2" points="156.6,174.3 148.2,182.7 147.1,181.6 147.1,164.8 	"/>
	<path class="st3" d="M155.5,131.4l1,20.8h-2l-0.4-0.4c-2.3-5.2-4.6-9-7-11.3v-6.4c0.8,0.4,1.5,0.6,2.1,0.6c0.8,0,1.4-0.2,1.9-0.5
		c0.5-0.3,1.2-1.2,2.3-2.8H155.5z"/>
	<path class="st3" d="M154.2,87.6l1,1c-0.3,0.3-0.6,0.6-1,0.9V87.6z"/>
	<path class="st2" d="M148.2,182.7l6.6,6.4c-1.4,1.6-3,3-4.8,4c-2.7,1.5-5.7,2.4-9,2.6v-5.2c1-0.3,1.9-0.8,2.7-1.6
		c1.1-1,1.7-2.2,1.9-3.6l2.1-2.1L148.2,182.7z"/>
	<path class="st3" d="M154.5,152.2h-0.2c-0.1-0.1-0.1-0.3-0.2-0.4L154.5,152.2z"/>
	<path class="st3" d="M154.2,87.6v1.9c-2.1,1.7-4.4,2.9-7.1,3.4v-9c0.3,0.4,0.7,0.8,1.1,1.2c0.8,0.6,1.5,0.9,2.2,0.9
		c0.6,0,1.3-0.1,1.9-0.3L154.2,87.6z"/>
	<path class="st3" d="M154.2,84.5v3l-1.9-1.9C152.9,85.4,153.6,85,154.2,84.5z"/>
	<polygon class="st3" points="154.2,33.6 154.2,39.8 146,39.8 146,60.4 130.2,60.4 130.2,30 146,30 146,33.6 	"/>
	<path class="st2" d="M148.2,182.7l-0.5,0.5l-2.1,2.1c0.1-0.3,0.1-0.7,0.1-1c0-2.1-0.7-3.9-1.9-5.4c-0.4-0.5-1-1-1.7-1.6
		c-1.6-1.4-3.9-3.1-7-5.2c-1.8-1.2-3.3-2.4-4.8-3.4V148l16.8,16.8v16.8L148.2,182.7z"/>
	<polygon class="st2" points="147.7,183.2 145.6,185.3 145.6,185.3 	"/>
	<path class="st3" d="M147.1,156.7v8.1L130.2,148v-5.9h0.9c0,1.2,0.4,2.3,1.3,3.4c1.4,1.8,5.3,4.8,11.6,9.1
		C145.1,155.3,146.1,156,147.1,156.7z"/>
	<path class="st3" d="M147.1,134.1v6.4c-0.3-0.3-0.7-0.6-1-0.9c-2.5-2-5-3.1-7.5-3.3l-4.8-4.8c0.9-0.1,1.9-0.2,2.9-0.2
		c3.3,0,6.5,0.8,9.6,2.4C146.5,133.9,146.8,134,147.1,134.1z"/>
	<path class="st3" d="M147.1,83.9v9c-1.1,0.2-2.3,0.3-3.6,0.3c-3.7,0-6.9-1-9.5-3.1c-1.6-1.3-2.9-2.7-3.7-4.2V63.6v-3.2H146v15.7
		c0,3.4,0.2,5.6,0.5,6.6C146.6,83.1,146.8,83.5,147.1,83.9z"/>
	<path class="st1" d="M146,12.1V30h-15.8l0,0c1.4-1.3,2.8-2.7,4-4.1c3.7-4.1,6.9-8.7,9.7-13.7H146z"/>
	<path class="st2" d="M141,190.5v5.2c-0.4,0-0.8,0-1.2,0c-1.2,0-2.6-0.2-4.1-0.5l4.6-4.6C140.5,190.7,140.8,190.6,141,190.5z"/>
	<path class="st2" d="M140.2,190.7l-4.6,4.6c0,0,0,0-0.1,0L140.2,190.7C140.2,190.7,140.2,190.7,140.2,190.7z"/>
	<path class="st2" d="M140.2,190.7l-4.6,4.6c-1.6-0.3-3.4-0.8-5.4-1.5v-5l0.7-0.7c2.7,1.9,5.2,2.8,7.7,2.8
		C139.1,190.9,139.7,190.8,140.2,190.7z"/>
	<path class="st3" d="M133.8,131.4l4.8,4.8c-0.3,0-0.6,0-1,0c-1.8,0-3.3,0.6-4.6,1.8c-1.2,1.2-1.9,2.6-1.9,4.1h-0.9v-9.9
		C131.3,131.8,132.5,131.6,133.8,131.4z"/>
	<path class="st2" d="M130.9,188.1l-0.7,0.7v-1.1C130.5,187.8,130.7,187.9,130.9,188.1z"/>
	<path class="st2" d="M130.2,188.8v5c-0.7-0.2-1.4-0.5-2.1-0.8c-0.6-0.2-1.2-0.4-1.6-0.5L130.2,188.8z"/>
	<path class="st2" d="M130.2,187.6v1.1l-3.7,3.7c-0.5-0.1-0.8-0.2-1.1-0.2c-1.4,0-2.6,1.1-3.6,3.2h-2.1l-1-21.8h2.2
		c1.9,5.7,4.6,10,8,12.9C129.4,186.9,129.8,187.3,130.2,187.6z"/>
	<path class="st2" d="M130.2,148v20.6c-4-3-6.7-5.3-8.1-7.1c-2.9-3.6-4.3-7.5-4.3-11.8c0-4.7,1.6-8.9,4.8-12.7
		c2-2.3,4.5-3.9,7.6-4.8v9.9V148z"/>
	<path class="st0" d="M130.2,63.6v22.3c-0.5-0.9-0.9-1.8-1.2-2.8c-0.4-1.4-0.6-5.3-0.6-11.6V60.4h1.8V63.6z"/>
	<path class="st1" d="M130.2,30v30.4h-1.8V39.8h-7.7v-2.2C124.3,35.2,127.4,32.6,130.2,30L130.2,30z"/>
	<path class="st0" d="M117.3,60.4c0,0.2,0,0.4,0,0.5h-8.8v-0.5H117.3z"/>
	<path class="st0" d="M115.2,74.9l2.1,1.4c-2.7,5.5-5.6,9.6-8.8,12.4v-6.2c0,0,0,0,0.1,0C110.6,81.1,112.8,78.5,115.2,74.9z"/>
	<path class="st1" d="M117.3,60.4h-8.8V40l1.3-1.3c0.2,0.2,0.3,0.3,0.4,0.5C114.5,44,116.9,51,117.3,60.4z"/>
	<path class="st2" d="M111.4,161.3H84.9l-4.4-4.4h14.9c0-7-0.4-11.8-1.1-14.4c-0.1-0.2-0.1-0.5-0.2-0.7l4.8-4.8l9.6,9.6v-0.9
		C110.2,150.1,111.2,155.3,111.4,161.3z"/>
	<path class="st2" d="M109.2,175.8l2.2,1.4c-1.2,2.5-2.5,4.8-3.9,6.7l-2.6-2.6C106.3,180,107.8,178.1,109.2,175.8z"/>
	<polygon points="109.8,38.7 108.5,40 108.5,40 109.8,38.7 	"/>
	<path class="st2" d="M109.8,38.7l-1.3,1.3v-2.6C108.9,37.8,109.3,38.2,109.8,38.7z"/>
	<path class="st2" d="M108.5,145.9v0.9l-9.6-9.6l1.7-1.6c1.3,1,2.5,2.1,3.6,3.4C105.9,140.8,107.3,143.2,108.5,145.9z"/>
	<path class="st0" d="M108.5,82.5v6.2c-0.6,0.5-1.2,1-1.7,1.4c-1.7,1.2-3.5,2.1-5.4,2.8v-8.3c0.1,0,0.2,0,0.4,0
		C104.2,84.6,106.4,83.9,108.5,82.5z"/>
	<rect x="101.3" y="60.4" class="st0" width="7.1" height="0.5"/>
	<path class="st1" d="M108.5,40v20.4h-7.1v-3.7h0.5c0-3.9-0.1-7.1-0.4-9.6L108.5,40z"/>
	<path d="M108.5,40L108.5,40l-7,7.1c0,0,0,0,0,0L108.5,40z"/>
	<path class="st2" d="M108.5,37.4V40l-7,7c-0.2-1.8-0.4-3.2-0.7-4.2c-0.6-1.9-1.3-3.4-2.3-4.6c0,0,0,0,0,0l4.5-4.5
		C104.9,34.5,106.7,35.8,108.5,37.4z"/>
	<path class="st2" d="M107.6,184c-0.1,0.1-0.1,0.2-0.2,0.3l-2.6-2.6c0.1-0.1,0.1-0.2,0.2-0.2L107.6,184z"/>
	<path class="st0" d="M104.8,181.6l2.6,2.6c-2.2,3.1-4.5,5.6-6.9,7.3c-4,2.8-8.6,4.2-13.8,4.2c-9,0-15.8-3.5-20.5-10.4
		c-3.7-5.6-5.6-12.5-5.6-20.8c0-3.4,0.3-6.7,1-9.6l8.5-8.5l7.8,7.8c0,0.2,0,0.3,0,0.5v2.3h2.3l4.4,4.4h-6.4
		c0.4,8.1,2.5,14.4,6.4,19.1c3,3.6,6.6,5.4,10.8,5.4c2.6,0,5-0.7,7.1-2.2C103.2,183.1,104,182.5,104.8,181.6z"/>
	<path class="st2" d="M102.9,33.6l-4.5,4.5c-0.3-0.4-0.7-0.8-1.1-1.1c-0.9-0.8-2.1-1.1-3.5-1.1c-2.2,0-4,1.1-5.3,3.2
		c-1.1,1.7-2,3.6-2.6,5.8l-7-7v0c4.7-4,10-6,15.9-6C97.7,31.9,100.4,32.5,102.9,33.6z"/>
	<path class="st1" d="M101.8,56.7h-0.5v-9.5l0.1-0.1C101.7,49.5,101.8,52.8,101.8,56.7z"/>
	<path class="st1" d="M101.3,84.6v8.3c-1.1,0.4-2.2,0.7-3.4,0.9V92H82.8c-3.7-1.7-6.8-4.3-9.2-8c-1.2-1.9-2.3-3.9-3.1-6.1l14.8-14.8
		c0.6,6.7,2.7,12.1,6.1,16.2C94.1,82.7,97.4,84.5,101.3,84.6z"/>
	<polygon class="st1" points="101.3,60.4 101.3,60.9 87.4,60.9 91.6,56.7 101.3,56.7 	"/>
	<path class="st3" d="M100.5,135.5l-1.7,1.6l-5.1-5.1C96.2,132.8,98.4,133.9,100.5,135.5z"/>
	<path class="st3" d="M98.9,137.1l-4.8,4.8c-0.8-2.3-1.9-4-3.3-5.2c-0.9-0.8-2.1-1.2-3.6-1.2c-1.7,0-3.2,0.6-4.4,1.9l-1.8-1.8l4-4
		c1-0.1,2.1-0.2,3.2-0.2c2,0,3.9,0.3,5.7,0.8L98.9,137.1z"/>
	<path class="st1" d="M98,92v1.7c-1.5,0.3-3,0.4-4.6,0.4c-4,0-7.5-0.7-10.6-2.1H98z"/>
	<path class="st0" d="M91.6,56.7l-4.2,4.2h-2.4c0,0.8,0.1,1.5,0.2,2.2L70.4,78c-1.1-3-1.8-6.2-2.1-9.8l16.5-16.5
		c-0.1,0.9-0.1,1.8-0.1,2.8v2.2H91.6z"/>
	<polygon class="st2" points="86.6,-33.1 87.4,-32.2 85.8,-32.2 	"/>
	<path class="st2" d="M85.9,44.9c0,0.1-0.1,0.2-0.1,0.4l-7.2-7.2c0.1-0.1,0.2-0.1,0.2-0.2L85.9,44.9z"/>
	<path class="st0" d="M85.8,45.3c-0.5,1.9-0.8,4.1-1,6.5L68.3,68.2c-0.1-1.4-0.2-2.8-0.2-4.2c0-9.8,2.7-17.6,7.9-23.4
		c0.8-0.9,1.7-1.7,2.5-2.5L85.8,45.3z"/>
	<path class="st3" d="M84.9,131.5l-4,4L70,146.4l-3.4-3.4c0.7-0.9,1.4-1.9,2.2-2.7C73.5,135.2,78.9,132.2,84.9,131.5z"/>
	<polygon class="st2" points="80.6,157 84.9,161.3 84.5,161.3 80.1,157 	"/>
	<path class="st3" d="M80.9,135.5l1.8,1.8c-0.4,0.4-0.8,0.9-1.2,1.5c-2.5,3.8-3.8,8.9-3.8,15.4l-7.8-7.8L80.9,135.5z"/>
	<polygon class="st2" points="79.8,156.2 80.6,157 80.1,157 79.6,156.4 	"/>
	<path class="st0" d="M80.1,157h-2.3v-2.3c0-0.2,0-0.3,0-0.5l2,2l-0.2,0.2L80.1,157z"/>
	<polygon class="st3" points="79.8,156.2 79.8,156.2 77.8,154.2 	"/>
	<polygon points="66.6,143 70,146.4 66.6,143 	"/>
	<path class="st0" d="M70,146.4l-8.5,8.5c1-4.5,2.6-8.5,5.1-11.9L70,146.4z"/>
	<path class="st1" d="M62.8,100.9c0,0.1,0,0.1,0,0.2l-7.7-7.7l1.4-1.4h3.5C61.8,94.4,62.8,97.4,62.8,100.9z"/>
	<path class="st3" d="M55.1,93.4l7.7,7.7c0,3.5-1.1,6.7-3.3,9.5c-2.2,2.9-5,5-8.6,6.4c-0.9,0.3-1.8,0.7-2.8,0.9l-6.5,0h0l-0.4-0.4
		H30.8l1.8-1.8c0.4,0,0.8,0,1.2,0c5.8,0,10.4-0.8,13.7-2.3c3.3-1.6,5-3.7,5-6.5c0-1.1-0.3-1.9-0.9-2.6c-1.1-1.2-2.8-2.1-5-2.6
		l8.3-8.3l0.1,0.1L55.1,93.4z"/>
	<path class="st0" d="M62.6,34.3v6.9H51.4c2,2.1,3.5,3.9,4.3,5.6c1,2.3,1.5,4.6,1.5,7.1c0,4.2-1.2,7.8-3.5,10.9
		c-2.3,3.1-5.5,5.5-9.5,7.2c-2.9,1.3-5.6,2.1-8,2.4l-3.5-3.5c2.1-0.3,3.8-1.4,5.3-3.4c1.7-2.3,2.5-6.8,2.5-13.5
		c0-7.5-1-12.6-2.8-15.3c-1.3-2-3.2-3-5.6-3c-2.4,0-4.5,1.2-6.2,3.7c-1.7,2.5-2.5,7.5-2.5,15.2c0,2.9,0.2,5.4,0.5,7.4l-8.4-8.5
		L8.7,47v-4.2c1.1-1.6,2.4-3.2,4-4.6c4.7-4.2,10.7-6.3,18.1-6.3c3.9,0,7.9,0.8,12.1,2.5H62.6z"/>
	<path class="st1" d="M59.9,92h-3.5l1.8-1.8C58.8,90.8,59.4,91.4,59.9,92z"/>
	<path class="st0" d="M58.2,90.3L56.5,92h-2.7l-4.6-4.6l0.8-0.8c2.4,0.5,4.3,1.1,5.7,1.9C56.6,89.1,57.5,89.6,58.2,90.3z"/>
	<polygon class="st0" points="56.5,92 55.1,93.4 55,93.3 53.7,92 	"/>
	<path class="st0" d="M57.8,139.9c0,2.9-0.7,5.2-2.1,6.8c-1.4,1.6-3.1,2.4-5.1,2.4c-2.3,0-4.3-0.7-6-2.2c-1.7-1.5-2.7-2.3-3-2.5
		c-0.1-0.1-0.3-0.1-0.5-0.2v-9.9c3-2,5.9-3,8.6-3c2.4,0,4.4,0.8,5.8,2.2C57.1,135,57.8,137.1,57.8,139.9z"/>
	<polygon points="55.1,93.4 55,93.5 54.9,93.4 55,93.3 	"/>
	<polygon points="55,93.3 54.9,93.4 53.5,92 53.7,92 	"/>
	<path class="st2" d="M53.5,92l1.4,1.4l-8.3,8.3c0,0-0.1,0-0.1,0c-1.6-0.3-5.2-0.5-10.6-0.6l9.1-9.1H53.5z"/>
	<path d="M53.7,92h-0.2l-5.8-5.8c0.1,0,0.1,0,0.2,0l1.2,1.2L53.7,92z"/>
	<path class="st2" d="M53.5,92h-8.6l-9.1,9.1c-2.2,0-4.8-0.1-7.6-0.1c-4.3,0-7.1,0.3-8.5,1.1c-2.4,1.3-3.6,3.1-3.6,5.3
		c0,2.1,1.2,4.1,3.7,5.8c0.7,0.5,1.6,0.9,2.6,1.3l-3.1,3.2h-5c-2.5-0.8-4.4-1.9-5.7-3.1v-1.3v-10.6c1.6-1.2,3.9-2.2,7.2-3.1
		c-3.6-1.8-6-4-7.2-6.7v-9.1c0.6-1.3,1.3-2.6,2.4-3.8c2.2-2.7,5.7-5.1,10.6-7.1l2.4,1.8c-1,0.3-1.9,0.8-2.8,1.6
		c-1.3,1.2-1.9,2.7-1.9,4.4c0,1.5,0.6,2.7,1.7,3.7c1.2,1,3,1.4,5.6,1.4l10.9-0.1c4,0,7.4,0.2,10.2,0.6L53.5,92z"/>
	<path class="st0" d="M50,86.6l-0.8,0.8L48,86.3C48.7,86.4,49.3,86.5,50,86.6z"/>
	<path class="st3" d="M41.6,118l6.5,0c-1.7,0.5-3.4,0.9-5.3,1.3c0,0,0,0,0,0L41.6,118z"/>
	<polygon points="41.6,118 42.8,119.3 41.6,118 	"/>
	<path class="st0" d="M42.8,119.3c-0.5,0.1-1.1,0.2-1.6,0.3v-1.9l0.4,0.4L42.8,119.3z"/>
	<path class="st3" d="M41.2,134.3v9.9c-0.3-0.1-0.7-0.2-1-0.2c-1.3,0-2.5,0.5-3.6,1.4c-1.8,1.5-3.1,3.6-4,6.3
		c-1.4,4.2-2.1,8.8-2.1,13.9v4.4l-18.1-18V146c0-3.5-0.2-5.7-0.5-6.6c-0.4-1.2-1.1-2.1-1.9-2.7c-0.8-0.6-2.3-0.9-4.4-1.2v-2.4h9.7
		l0,0l0,0h15.1v13.8c4-6.3,7.6-10.5,10.6-12.5C41.1,134.4,41.2,134.3,41.2,134.3z"/>
	<path class="st3" d="M41.2,117.6v1.9c-2.8,0.4-5.8,0.6-8.9,0.6c-1.3,0-2.6,0-3.9-0.1l2.4-2.4H41.2z"/>
	<path class="st3" d="M38.5,191.6v2.3h-0.2l-2.6-2.7C36.4,191.4,37.3,191.5,38.5,191.6z"/>
	<path class="st3" d="M35.6,191.3l2.6,2.7H5.6v-2.3c2.7-0.2,4.4-0.9,5.4-2.2c0.9-1.2,1.4-4.5,1.4-9.8v-11.6l18.3,18.3
		c0.1,0.8,0.2,1.3,0.3,1.7c0.5,1.2,1.3,2,2.3,2.6C33.8,190.9,34.6,191.1,35.6,191.3z"/>
	<path d="M36.2,74.4C36.1,74.5,36.1,74.5,36.2,74.4l-3.6-3.5c0,0,0,0,0.1,0L36.2,74.4z"/>
	<path class="st2" d="M32.6,70.9l3.5,3.5c-0.9,0.1-1.7,0.2-2.5,0.2c-0.2,0-2.8-0.1-7.5-0.3c-0.7,0-1.4,0.1-2,0.3l-2.4-1.8
		c-5.6-2.1-9.7-4.8-12.2-8.1c-0.3-0.3-0.5-0.7-0.7-1.1v-3.3V47.2l6.7,6.5l8.5,8.5c0.4,2.3,1,4.1,1.9,5.4c1.6,2.3,3.6,3.5,5.9,3.5
		C32,71,32.3,71,32.6,70.9z"/>
	<path class="st3" d="M30.6,186.3l4.9,4.9c-1-0.2-1.7-0.4-2.3-0.7c-1-0.6-1.8-1.4-2.3-2.6C30.8,187.6,30.7,187.1,30.6,186.3z"/>
	<path class="st2" d="M32.6,115.8l-1.8,1.8H19.4l3.1-3.2C24.9,115.3,28.3,115.7,32.6,115.8z"/>
	<path class="st3" d="M30.8,117.6l-2.4,2.4c-3.6-0.2-7-0.6-10.1-1.3l1.1-1.1H30.8z"/>
	<path class="st3" d="M30.5,183.2c0,1.2,0,2.3,0.1,3.1l-18.3-18.3v-16l18.1,18v9.6L30.5,183.2z"/>
	<path d="M23.8,62.1C23.8,62.1,23.8,62.1,23.8,62.1l-8.4-8.5L23.8,62.1z"/>
	<path class="st3" d="M19.4,117.6l-1.1,1.1c-0.1,0-0.3-0.1-0.5-0.1c-1.2-0.3-2.4-0.6-3.4-1H19.4z"/>
	<polygon points="15.4,133.1 15.4,133.1 15.4,133.1 	"/>
	<polygon points="15.4,53.7 8.7,47.2 8.7,47 	"/>
	<path class="st2" d="M8.7,113.2v1.3c-0.1-0.1-0.1-0.1-0.2-0.2c-1.3-1.2-2.1-2.5-2.5-3.9L8.7,113.2z"/>
	<path class="st3" d="M8.7,102.6v10.6l-2.8-2.8c-0.2-0.6-0.3-1.2-0.3-1.9c0-1.9,0.7-3.7,2.2-5.2C8,103.1,8.3,102.9,8.7,102.6z"/>
	<path class="st3" d="M8.7,83.7v9.1c-0.6-1.4-1-2.9-1-4.5C7.7,86.8,8,85.2,8.7,83.7z"/>
	<path class="st3" d="M8.7,60.4v3.3c-2-3.1-3-6.6-3-10.6c0-2.7,0.5-5.2,1.6-7.6L8.7,47v0.2V60.4z"/>
	<path class="st3" d="M8.7,42.8V47l-1.5-1.5C7.6,44.6,8.1,43.7,8.7,42.8z"/>
</g>
</svg>
