<?xml version="1.0" encoding="utf-8"?>
<!-- Generator: Adobe Illustrator 22.1.0, SVG Export Plug-In . SVG Version: 6.00 Build 0)  -->
<svg version="1.1" xmlns="http://www.w3.org/2000/svg" xmlns:xlink="http://www.w3.org/1999/xlink" x="0px" y="0px"
	 viewBox="0 0 375 90.7" style="enable-background:new 0 0 375 90.7;" xml:space="preserve">
<style type="text/css">
	.st0{fill:#00004C;}
	.st1{fill:#7F0000;}
	.st2{fill:#000099;}
	.st3{fill:#FF0000;}
</style>
<g id="Layer_3_1_">
	<g>
		<path d="M32.2,25.3h12.6v4.4h-7.2c1.3,1.3,2.2,2.5,2.7,3.6c0.6,1.4,1,2.9,1,4.5c0,2.7-0.7,5-2.2,6.9s-3.5,3.5-6,4.6
			c-2.5,1.1-4.8,1.7-6.8,1.7c-0.2,0-1.8-0.1-4.8-0.2c-1.2,0-2.2,0.4-3,1.2c-0.8,0.8-1.2,1.7-1.2,2.8c0,1,0.4,1.7,1.1,2.4
			c0.7,0.6,1.9,0.9,3.6,0.9l6.9-0.1c5.6,0,9.5,0.6,11.6,1.8c3,1.7,4.5,4.3,4.5,7.9c0,2.3-0.7,4.3-2.1,6.2c-1.4,1.9-3.2,3.2-5.5,4.1
			c-3.4,1.3-7.4,2-11.9,2c-3.4,0-6.4-0.3-9.2-1s-4.8-1.6-6-2.7c-1.2-1.2-1.8-2.4-1.8-3.7c0-1.2,0.5-2.3,1.4-3.3
			c0.9-1,2.6-1.8,5.1-2.5c-3.5-1.7-5.2-4.1-5.2-7.1c0-1.8,0.7-3.6,2.1-5.4c1.4-1.7,3.7-3.2,6.7-4.5c-3.6-1.3-6.2-3-7.8-5.2
			c-1.6-2.1-2.4-4.6-2.4-7.4c0-3.7,1.5-6.8,4.5-9.5s6.8-4,11.5-4C27,23.7,29.5,24.2,32.2,25.3z M22.9,67.8c-2.7,0-4.5,0.2-5.4,0.7
			c-1.5,0.8-2.3,1.9-2.3,3.4c0,1.4,0.8,2.6,2.4,3.7c1.6,1.1,4.5,1.7,8.9,1.7c3.7,0,6.6-0.5,8.7-1.5c2.1-1,3.2-2.4,3.2-4.2
			c0-0.7-0.2-1.2-0.6-1.7c-0.7-0.8-1.8-1.3-3.3-1.6C33.1,68,29.2,67.8,22.9,67.8z M25.3,26.2c-1.5,0-2.9,0.8-3.9,2.3
			s-1.6,4.8-1.6,9.7c0,4,0.5,6.7,1.6,8.2c1.1,1.5,2.3,2.2,3.7,2.2c1.6,0,2.9-0.7,4-2.2c1.1-1.5,1.6-4.3,1.6-8.6c0-4.8-0.6-8-1.8-9.8
			C28,26.8,26.8,26.2,25.3,26.2z"/>
		<path d="M78.4,42.2H57.9c0.2,5,1.6,8.9,4,11.8c1.8,2.2,4.1,3.3,6.6,3.3c1.6,0,3.1-0.4,4.4-1.3c1.3-0.9,2.7-2.5,4.2-4.8l1.4,0.9
			c-2,4.1-4.3,7.1-6.7,8.8c-2.5,1.7-5.3,2.6-8.5,2.6c-5.6,0-9.8-2.1-12.6-6.4c-2.3-3.4-3.4-7.7-3.4-12.8c0-6.2,1.7-11.2,5.1-14.9
			c3.4-3.7,7.3-5.5,11.9-5.5c3.8,0,7.1,1.6,9.9,4.7S78.2,36.1,78.4,42.2z M68.6,39.5c0-4.3-0.2-7.2-0.7-8.8s-1.2-2.8-2.2-3.6
			c-0.6-0.5-1.3-0.7-2.2-0.7c-1.4,0-2.5,0.7-3.4,2c-1.6,2.4-2.4,5.6-2.4,9.8v1.4H68.6z"/>
		<path d="M96.4,11.2v13.7h8.9v4h-8.9v23.1c0,2.2,0.1,3.6,0.3,4.2c0.2,0.6,0.5,1.1,1.1,1.5c0.5,0.4,1,0.6,1.4,0.6
			c1.7,0,3.4-1.3,4.9-4l1.2,0.9c-2.2,5.1-5.7,7.7-10.5,7.7c-2.4,0-4.4-0.7-6-2s-2.7-2.8-3.2-4.4c-0.3-0.9-0.4-3.4-0.4-7.4V28.8h-4.9
			v-1.4c3.4-2.4,6.2-4.9,8.6-7.5s4.4-5.5,6.2-8.8H96.4z"/>
		<path d="M150.6,23.8l0.6,12.8h-1.4c-1.6-3.8-3.3-6.4-5.1-7.8s-3.5-2.1-5.2-2.1c-1.1,0-2,0.4-2.8,1.1c-0.8,0.7-1.2,1.6-1.2,2.5
			c0,0.7,0.3,1.4,0.8,2.1c0.9,1.1,3.2,3,7.2,5.6s6.5,4.9,7.7,6.8c1.2,1.9,1.9,3.9,1.9,6.2c0,2.1-0.5,4.1-1.6,6.1
			c-1,2-2.5,3.5-4.4,4.6c-1.9,1.1-4,1.6-6.3,1.6c-1.8,0-4.2-0.6-7.2-1.7c-0.8-0.3-1.3-0.4-1.6-0.4c-0.9,0-1.6,0.7-2.2,2h-1.3
			l-0.6-13.5h1.4c1.2,3.5,2.8,6.2,4.9,7.9c2.1,1.8,4.1,2.6,5.9,2.6c1.3,0,2.3-0.4,3.1-1.2c0.8-0.8,1.2-1.7,1.2-2.9
			c0-1.3-0.4-2.4-1.2-3.3c-0.8-0.9-2.6-2.3-5.4-4.2c-4.1-2.8-6.7-5-7.9-6.5c-1.8-2.2-2.6-4.6-2.6-7.2c0-2.9,1-5.5,3-7.8
			s4.9-3.5,8.6-3.5c2,0,4,0.5,5.9,1.5c0.7,0.4,1.3,0.6,1.8,0.6c0.5,0,0.9-0.1,1.2-0.3c0.3-0.2,0.8-0.8,1.4-1.7H150.6z"/>
		<path d="M172,11.2v13.7h8.9v4H172v23.1c0,2.2,0.1,3.6,0.3,4.2c0.2,0.6,0.6,1.1,1.1,1.5c0.5,0.4,1,0.6,1.4,0.6c1.7,0,3.4-1.3,4.9-4
			l1.2,0.9c-2.2,5.1-5.7,7.7-10.5,7.7c-2.4,0-4.4-0.7-6-2c-1.6-1.3-2.7-2.8-3.1-4.4c-0.3-0.9-0.4-3.4-0.4-7.4V28.8h-4.9v-1.4
			c3.4-2.4,6.2-4.9,8.6-7.5s4.4-5.5,6.2-8.8H172z"/>
		<path d="M204.7,56.8c-4.6,4-8.7,6-12.3,6c-2.1,0-3.9-0.7-5.3-2.1c-1.4-1.4-2.1-3.2-2.1-5.3c0-2.9,1.2-5.4,3.7-7.7
			c2.5-2.3,7.8-5.3,16.1-9.1v-3.8c0-2.8-0.1-4.6-0.5-5.3c-0.3-0.7-0.9-1.4-1.7-1.9c-0.9-0.5-1.8-0.8-2.9-0.8c-1.7,0-3.2,0.4-4.3,1.2
			c-0.7,0.5-1,1-1,1.7c0,0.6,0.4,1.3,1.1,2.1c1,1.1,1.5,2.3,1.5,3.3c0,1.3-0.5,2.4-1.5,3.3c-1,0.9-2.3,1.4-3.8,1.4
			c-1.7,0-3.1-0.5-4.2-1.5c-1.1-1-1.7-2.2-1.7-3.6c0-1.9,0.8-3.8,2.3-5.5c1.5-1.7,3.6-3.1,6.4-4s5.6-1.4,8.5-1.4
			c3.6,0,6.4,0.8,8.4,2.3s3.4,3.1,4,4.9c0.4,1.1,0.6,3.7,0.6,7.7v14.5c0,1.7,0.1,2.8,0.2,3.2c0.1,0.4,0.3,0.8,0.6,1
			c0.3,0.2,0.6,0.3,0.9,0.3c0.7,0,1.4-0.5,2.1-1.5l1.2,1c-1.3,2-2.7,3.4-4.1,4.3c-1.4,0.9-3.1,1.3-4.9,1.3c-2.1,0-3.8-0.5-5-1.5
			C205.7,60.3,204.9,58.8,204.7,56.8z M204.7,53.8V41.3c-3.2,1.9-5.6,3.9-7.2,6.1c-1,1.4-1.6,2.9-1.6,4.4c0,1.2,0.4,2.3,1.3,3.2
			c0.7,0.7,1.6,1.1,2.8,1.1C201.4,56.1,202.9,55.3,204.7,53.8z"/>
		<path d="M239,24.8v8.5c2.5-3.9,4.7-6.4,6.5-7.7s3.7-1.9,5.4-1.9c1.5,0,2.7,0.5,3.6,1.4c0.9,0.9,1.3,2.2,1.3,3.9
			c0,1.8-0.4,3.2-1.3,4.2c-0.9,1-1.9,1.5-3.1,1.5c-1.4,0-2.6-0.5-3.7-1.4c-1-0.9-1.7-1.4-1.8-1.5c-0.3-0.2-0.6-0.2-0.9-0.2
			c-0.8,0-1.5,0.3-2.2,0.9c-1.1,0.9-1.9,2.2-2.5,3.9c-0.9,2.6-1.3,5.4-1.3,8.6v8.6l0,2.2c0,1.5,0.1,2.5,0.3,2.9
			c0.3,0.7,0.8,1.2,1.4,1.6s1.7,0.5,3.2,0.6v1.4h-20.2v-1.4c1.6-0.1,2.7-0.6,3.3-1.3c0.6-0.8,0.9-2.8,0.9-6V32.8
			c0-2.1-0.1-3.5-0.3-4.1c-0.3-0.7-0.7-1.3-1.2-1.6c-0.5-0.3-1.4-0.6-2.7-0.7v-1.5H239z"/>
		<path d="M275.1,11.2v13.7h8.9v4h-8.9v23.1c0,2.2,0.1,3.6,0.3,4.2c0.2,0.6,0.6,1.1,1.1,1.5c0.5,0.4,1,0.6,1.4,0.6
			c1.7,0,3.4-1.3,4.9-4l1.2,0.9c-2.2,5.1-5.7,7.7-10.5,7.7c-2.4,0-4.4-0.7-6-2c-1.6-1.3-2.7-2.8-3.1-4.4c-0.3-0.9-0.4-3.4-0.4-7.4
			V28.8H259v-1.4c3.4-2.4,6.2-4.9,8.6-7.5c2.4-2.6,4.4-5.5,6.2-8.8H275.1z"/>
		<path d="M318.1,42.2h-20.5c0.2,5,1.6,8.9,4,11.8c1.8,2.2,4.1,3.3,6.6,3.3c1.6,0,3.1-0.4,4.4-1.3c1.3-0.9,2.7-2.5,4.2-4.8l1.4,0.9
			c-2,4.1-4.3,7.1-6.7,8.8c-2.5,1.7-5.3,2.6-8.5,2.6c-5.6,0-9.8-2.1-12.6-6.4c-2.3-3.4-3.4-7.7-3.4-12.8c0-6.2,1.7-11.2,5.1-14.9
			c3.4-3.7,7.3-5.5,11.9-5.5c3.8,0,7.1,1.6,9.9,4.7S317.9,36.1,318.1,42.2z M308.2,39.5c0-4.3-0.2-7.2-0.7-8.8s-1.2-2.8-2.2-3.6
			c-0.6-0.5-1.3-0.7-2.2-0.7c-1.4,0-2.5,0.7-3.4,2c-1.6,2.4-2.4,5.6-2.4,9.8v1.4H308.2z"/>
		<path d="M358.3,8v43.1c0,2.9,0.1,4.6,0.2,5.2c0.2,0.9,0.6,1.5,1.2,2c0.6,0.4,1.7,0.7,3.2,0.8v1.3l-15.8,3.1v-5.9
			c-1.9,2.3-3.6,3.9-5.1,4.7c-1.5,0.8-3.2,1.2-5,1.2c-4.8,0-8.6-2.1-11.3-6.4c-2.2-3.5-3.4-7.7-3.4-12.8c0-4,0.7-7.6,2.1-10.8
			c1.4-3.2,3.3-5.6,5.7-7.2c2.4-1.6,5-2.4,7.8-2.4c1.8,0,3.4,0.3,4.8,1c1.4,0.7,2.9,1.9,4.4,3.6V17.1c0-2.9-0.1-4.6-0.4-5.2
			c-0.3-0.8-0.8-1.3-1.4-1.7c-0.6-0.4-1.8-0.6-3.6-0.6V8H358.3z M347.1,33.4c-2-3.8-4.4-5.7-7.2-5.7c-1,0-1.8,0.3-2.4,0.8
			c-1,0.8-1.8,2.3-2.4,4.4c-0.6,2.1-0.9,5.3-0.9,9.6c0,4.7,0.3,8.2,1,10.5s1.6,3.9,2.8,4.9c0.6,0.5,1.5,0.8,2.5,0.8
			c2.3,0,4.6-1.8,6.6-5.5V33.4z"/>
	</g>
</g>
<g id="Layer_2">
	<g>
		<path class="st0" d="M363,59v1.3l-3.2,0.6l-12.6-12.6v-15c-1.8-3.5-4-5.4-6.6-5.7V24c0.8,0.2,1.5,0.4,2.1,0.8
			c1.4,0.7,2.9,1.9,4.4,3.6v-5.6h11.2v28.2c0,2.9,0.1,4.6,0.2,5.2c0.2,0.9,0.6,1.5,1.2,2C360.4,58.6,361.5,58.9,363,59z"/>
		<polygon points="359.8,61 359.7,61 347.1,48.4 347.1,48.3 		"/>
		<path class="st1" d="M347.1,48.4L359.7,61l-12.5,2.4v-5.9l-2.8-0.6c1-0.9,1.9-2.2,2.8-3.8V48.4z"/>
		<path class="st2" d="M358.3,8v14.9h-11.2v-5.7c0-2.9-0.1-4.6-0.4-5.2c-0.3-0.8-0.8-1.3-1.4-1.7c-0.6-0.4-1.8-0.6-3.6-0.6V8H358.3z
			"/>
		<path class="st1" d="M344.3,56.8l2.8,0.6c-1.9,2.3-3.6,3.9-5.1,4.7c-1.5,0.8-3.1,1.2-5,1.2c-4.8,0-8.6-2.1-11.3-6.4
			c-2.2-3.5-3.4-7.7-3.4-12.8c0-3,0.4-5.8,1.2-8.4l10.6,10.7c0.1,2.7,0.5,4.9,0.9,6.4c0.7,2.3,1.6,3.9,2.8,4.9
			c0.6,0.5,1.5,0.8,2.5,0.8C341.8,58.6,343.1,58,344.3,56.8z"/>
		<path class="st0" d="M340.5,24v3.7c-0.2,0-0.4,0-0.7,0c-1,0-1.8,0.3-2.4,0.8c-1,0.8-1.8,2.3-2.4,4.4c-0.2,0.8-0.4,1.7-0.6,2.8
			l-0.5-0.5v0V24.3c1.3-0.4,2.6-0.6,4-0.6C338.9,23.7,339.7,23.8,340.5,24z"/>
		<path class="st1" d="M333.9,35.1l0.5,0.5c-0.2,1.8-0.4,4.1-0.4,6.8c0,1.5,0,2.8,0.1,4l-10.6-10.7c0.2-0.8,0.5-1.6,0.9-2.4
			c0.3-0.7,0.7-1.4,1.1-2.1l2.2-2.2l5.9,5.7L333.9,35.1z"/>
		<polygon points="333.9,35.1 333.9,35.1 333.6,34.8 		"/>
		<path class="st0" d="M333.9,24.3v10.8l-0.3-0.3l-6-6l-0.1,0.1l-0.2-0.2c0.8-1,1.8-1.8,2.8-2.5C331.4,25.4,332.6,24.7,333.9,24.3z"
			/>
		<polygon class="st0" points="333.6,34.8 327.7,29.1 327.5,28.9 327.6,28.8 		"/>
		<path class="st1" d="M327.7,29.1l-2.2,2.2c0.2-0.4,0.5-0.8,0.7-1.2l1.3-1.3L327.7,29.1z"/>
		<path class="st2" d="M327.3,28.7l0.2,0.2l-1.3,1.3C326.5,29.6,326.9,29.1,327.3,28.7z"/>
		<path class="st1" d="M318.1,42.2h-3.5l3.3-3.3C317.9,40,318,41.1,318.1,42.2z"/>
		<path class="st1" d="M316.7,51.2l1.4,0.9c-2,4.1-4.3,7.1-6.7,8.8c-2.5,1.7-5.3,2.6-8.5,2.6c-2.9,0-5.5-0.6-7.7-1.8l6.9-6.9
			c1.7,1.8,3.7,2.6,6,2.6c1.6,0,3.1-0.4,4.4-1.3C313.8,55.1,315.2,53.5,316.7,51.2z"/>
		<path class="st1" d="M317.8,38.6c0,0.1,0,0.3,0,0.4l-3.3,3.3h-0.4L317.8,38.6z"/>
		<path class="st2" d="M317.8,38.6l-3.7,3.6h-16.6v-2.7h10.7c0-4.3-0.2-7.2-0.7-8.9c-0.5-1.6-1.2-2.8-2.2-3.6
			c-0.6-0.5-1.3-0.7-2.2-0.7c-0.2,0-0.3,0-0.5,0l-0.2-2.6c0.4,0,0.9-0.1,1.3-0.1c3.8,0,7.1,1.6,9.9,4.7
			C315.8,30.9,317.2,34.2,317.8,38.6z"/>
		<path class="st2" d="M302.4,23.8l0.2,2.6c-1.2,0.1-2.1,0.8-2.9,2c-1.6,2.4-2.4,5.6-2.4,9.8v1.4h0.2v2.7c0.2,5,1.6,8.9,4,11.8
			c0.1,0.2,0.3,0.3,0.4,0.5l-7,7c-1.8-1-3.4-2.5-4.7-4.5c-2.3-3.4-3.4-7.7-3.4-12.8c0-6.2,1.7-11.2,5.1-14.9
			C294.9,25.9,298.4,24.1,302.4,23.8z"/>
		<path class="st1" d="M301.9,54.5c0.1,0.1,0.1,0.2,0.2,0.2l-6.9,6.9c-0.1,0-0.2-0.1-0.3-0.2L301.9,54.5z"/>
		<path class="st2" d="M284,24.9v4h-8.9v23.1c0,2.2,0.1,3.6,0.3,4.2c0.2,0.6,0.6,1.1,1.1,1.5c0.5,0.4,1,0.6,1.4,0.6
			c1.7,0,3.4-1.3,4.9-4l1.2,0.9c-2.2,5.1-5.7,7.7-10.5,7.7c-2.4,0-4.4-0.7-6-2c-1.7-1.3-2.7-2.8-3.1-4.4c-0.3-0.9-0.4-3.4-0.4-7.4
			V28.8H259v-1.4c3.4-2.4,6.2-4.9,8.6-7.5c2.4-2.6,4.4-5.5,6.2-8.8h1.3v13.7H284z"/>
		<path class="st2" d="M255.7,27.5c0.1,0.5,0.1,1,0.1,1.6c0,1.8-0.4,3.2-1.3,4.2c-0.9,1-1.9,1.5-3.1,1.5c-0.9,0-1.7-0.2-2.4-0.5
			l5.1-5.1L255.7,27.5L255.7,27.5z"/>
		<path class="st1" d="M255.7,27.5l-1.6,1.6l-5.2,5c-0.4-0.2-0.7-0.4-1.1-0.7v-9c1.1-0.4,2.1-0.6,3.1-0.6c1.5,0,2.7,0.5,3.6,1.4
			C255.1,25.7,255.5,26.5,255.7,27.5z"/>
		<path class="st2" d="M254.1,29.1l-5.1,5.1c0,0-0.1,0-0.1,0L254.1,29.1z"/>
		<path class="st3" d="M247.9,24.4v9c0,0-0.1-0.1-0.1-0.1c-1-0.9-1.6-1.4-1.8-1.5c-0.3-0.2-0.6-0.2-0.9-0.2c-0.8,0-1.5,0.3-2.2,0.9
			c-1.1,0.9-1.9,2.2-2.5,3.9c-0.8,2.4-1.2,5-1.3,7.9l-11.2,11.2c0-0.6,0-1.2,0-1.9V32.8c0-0.2,0-0.3,0-0.5l7.5-7.5h3.7v8.5
			c2.5-3.9,4.7-6.4,6.5-7.7C246.3,25.1,247.1,24.7,247.9,24.4z"/>
		<path class="st3" d="M244,60.8v1.4h-20.2v-1.4c1.6-0.1,2.7-0.6,3.3-1.3c0.5-0.6,0.7-2,0.8-4.2L239,44.2c0,0.2,0,0.5,0,0.7v8.6
			l0,2.2c0,1.5,0.1,2.5,0.3,2.9c0.3,0.7,0.8,1.2,1.4,1.6C241.4,60.6,242.5,60.8,244,60.8z"/>
		<path class="st3" d="M235.4,24.9l-7.5,7.5c0-1.9-0.1-3.1-0.3-3.6c-0.3-0.8-0.7-1.3-1.2-1.6c-0.5-0.3-1.4-0.6-2.7-0.7v-1.5H235.4z"
			/>
		<path class="st3" d="M219.7,56.2l1.2,1c-1.3,2-2.7,3.4-4.1,4.3c-1,0.6-2.1,1-3.3,1.2l-2.4-2.4V49.1l4.8-4.8v8.8
			c0,1.7,0.1,2.8,0.2,3.2c0.1,0.4,0.3,0.8,0.6,1c0.3,0.2,0.6,0.3,0.9,0.3C218.3,57.7,219,57.2,219.7,56.2z"/>
		<path class="st3" d="M215.8,38.6v5.7l-4.8,4.8V25.9c0.1,0,0.1,0.1,0.2,0.1c2.1,1.5,3.4,3.1,4,4.9C215.6,32,215.8,34.6,215.8,38.6z
			"/>
		<path class="st3" d="M211.1,60.3l2.4,2.4c-0.5,0.1-1,0.1-1.6,0.1c-0.3,0-0.5,0-0.8,0V60.3z"/>
		<path class="st3" d="M211.1,60.3v2.5c-1.8-0.1-3.2-0.6-4.2-1.5c-1.2-1-1.9-2.5-2.2-4.6c-1.7,1.5-3.3,2.7-4.9,3.7l5.7-5.7
			L211.1,60.3z"/>
		<polygon class="st3" points="211.1,49.1 211.1,60.3 205.5,54.7 		"/>
		<path class="st3" d="M211.1,25.9v23.2l-5.6,5.6l-0.8-0.9c0,0,0,0,0,0V41.3c-2.4,1.4-4.4,2.9-5.9,4.5v-4.3c1.8-0.9,3.7-1.8,5.9-2.8
			v-3.8c0-2.8-0.1-4.6-0.5-5.4c-0.3-0.7-0.9-1.4-1.8-1.9c-0.9-0.5-1.8-0.8-2.9-0.8c-0.3,0-0.5,0-0.8,0V24c1.3-0.2,2.7-0.3,4-0.3
			C206.3,23.7,209,24.4,211.1,25.9z"/>
		<path class="st3" d="M205.5,54.7l-5.7,5.7c-0.3,0.2-0.6,0.4-1,0.6v-5c0.4,0.1,0.8,0.1,1.2,0.1c1.3,0,2.9-0.7,4.6-2.2L205.5,54.7z"
			/>
		<path class="st0" d="M198.8,55.9v5c-0.9,0.5-1.7,0.8-2.6,1.1H189c-0.7-0.3-1.4-0.8-2-1.4c-1.4-1.4-2.1-3.2-2.1-5.3
			c0-2.8,1.2-5.4,3.7-7.7c1.2-1.1,3.2-2.5,5.9-4l3.3,3.3c-0.1,0.1-0.2,0.3-0.3,0.4c-1,1.4-1.6,2.9-1.6,4.4c0,1.2,0.4,2.3,1.3,3.2
			C197.6,55.5,198.2,55.8,198.8,55.9z"/>
		<path class="st3" d="M198.8,41.4v4.3c-0.4,0.4-0.7,0.8-1.1,1.2l-3.3-3.3C195.8,43,197.2,42.2,198.8,41.4z"/>
		<path class="st3" d="M198.8,24v2.8c-1.4,0.1-2.6,0.5-3.5,1.1c-0.7,0.5-1,1-1,1.7c0,0.6,0.4,1.3,1.1,2.1c1,1.1,1.5,2.2,1.5,3.3
			c0,1.3-0.5,2.4-1.5,3.3c-1,0.9-2.2,1.4-3.8,1.4c-0.4,0-0.8,0-1.2-0.1c0,0,0,0,0,0l-4.7-4.7c0-0.1,0-0.2,0-0.3
			c0-1.9,0.8-3.8,2.3-5.5s3.6-3.1,6.4-4C195.8,24.6,197.3,24.3,198.8,24z"/>
		<path class="st0" d="M189,62.1h7.2c-1.4,0.5-2.6,0.7-3.9,0.7C191.1,62.8,190,62.6,189,62.1z"/>
		<path class="st0" d="M185.7,35l4.7,4.7c-1.1-0.2-2.2-0.7-3-1.4C186.3,37.3,185.8,36.2,185.7,35z"/>
		<polygon class="st3" points="180.9,24.9 180.9,28.8 179.6,28.8 177.3,26.6 177.4,26.5 177.3,26.4 178.9,24.9 		"/>
		<path class="st0" d="M179.7,54.2l1.2,0.9c-1.2,2.8-2.8,4.8-4.7,6.1v-3.3C177.4,57.4,178.6,56.2,179.7,54.2z"/>
		<polygon class="st0" points="179.6,28.8 176.2,28.8 176.2,27.7 177.3,26.6 		"/>
		<polygon class="st1" points="178.9,24.9 177.3,26.4 176.2,25.3 176.2,24.9 		"/>
		
			<rect x="177.3" y="26.4" transform="matrix(0.7071 -0.7071 0.7071 0.7071 33.2146 133.1471)" class="st3" width="0.1" height="0.1"/>
		<polygon class="st2" points="177.3,26.4 177.2,26.5 176.2,25.4 176.2,25.4 176.2,25.3 		"/>
		<polygon class="st2" points="177.3,26.6 176.2,27.7 176.2,25.4 177.2,26.5 		"/>
		<path class="st0" d="M176.2,57.9v3.3c-1.7,1.1-3.6,1.6-5.8,1.6c-2.4,0-4.4-0.7-6-2c-1.7-1.3-2.7-2.8-3.2-4.4
			c-0.3-0.9-0.4-3.4-0.4-7.4v-6L172,31.8v20.1c0,2.2,0.1,3.6,0.3,4.2c0.2,0.6,0.6,1.1,1.1,1.5c0.5,0.4,1,0.6,1.4,0.6
			C175.3,58.2,175.8,58.1,176.2,57.9z"/>
		<polygon class="st0" points="176.2,27.7 176.2,28.8 175.1,28.8 		"/>
		<polygon class="st2" points="176.2,25.4 176.2,27.7 175.1,28.8 172,28.8 172,31.8 160.8,43 160.8,33.2 172,22 172,24.9 
			175.6,24.9 176.2,25.4 		"/>
		<polygon class="st2" points="176.2,25.3 176.2,25.4 175.6,24.9 175.8,24.9 		"/>
		<polygon class="st1" points="176.2,24.9 176.2,25.3 175.8,24.9 		"/>
		<path class="st2" d="M172,21.3V22l-11.2,11.2v-4.4h-4.9v-1.4c3.4-2.4,6.2-4.9,8.6-7.5c1-1.1,1.9-2.2,2.8-3.4L172,21.3z"/>
		<path class="st2" d="M172,21.1v0.1l-4.7-4.7c0,0,0,0,0.1-0.1L172,21.1z"/>
		<path class="st2" d="M172,11.1v10l-4.7-4.7c1.2-1.7,2.3-3.4,3.4-5.3H172z"/>
		<path class="st0" d="M153.1,50.6c0,0.1,0,0.3,0,0.4c0,2.1-0.5,4.1-1.6,6.1c-1,2-2.5,3.5-4.4,4.6c-1.9,1.1-4,1.6-6.3,1.6
			c-0.1,0-0.3,0-0.4,0l4.2-4.2l-0.1-0.1L153.1,50.6z"/>
		<path class="st2" d="M153.1,50.6l-8.5,8.5l-0.7-0.7c0.4-0.6,0.6-1.3,0.6-2.1c0-1.3-0.4-2.4-1.2-3.3c-0.3-0.3-0.7-0.7-1.2-1.2
			l8.2-8.2c0.4,0.4,0.7,0.8,0.9,1.2C152.4,46.6,153.1,48.5,153.1,50.6z"/>
		<path class="st2" d="M150.6,23.8l0.6,12.8h-1.4c-1.6-3.8-3.3-6.4-5.1-7.8c-1.7-1.4-3.5-2.1-5.2-2.1c-1.1,0-2,0.4-2.8,1.1
			c-0.8,0.7-1.2,1.6-1.2,2.5c0,0.7,0.3,1.4,0.8,2.1c0.9,1.1,3.2,3,7.2,5.6c3.1,2.1,5.4,4,6.8,5.6l-8.2,8.2c-1-0.8-2.3-1.9-4.1-3.1
			c-4.1-2.8-6.7-5-7.9-6.5c-1.8-2.2-2.6-4.6-2.6-7.2c0-2.9,1-5.5,3-7.8c2-2.3,4.9-3.5,8.6-3.5c2,0,4,0.5,5.9,1.5
			c0.7,0.4,1.3,0.6,1.8,0.6c0.5,0,0.9-0.1,1.2-0.3c0.3-0.2,0.8-0.8,1.4-1.7H150.6z"/>
		<path class="st0" d="M144.7,59.2l-4.2,4.2c0,0,0,0,0,0l3.9-4.1L144.7,59.2L144.7,59.2z"/>
		<path class="st1" d="M144.6,59.1l-0.2,0.2l-0.6-0.6c0.1-0.1,0.1-0.2,0.2-0.2L144.6,59.1z"/>
		<path class="st1" d="M144.4,59.3l-3.9,4.1c-1.7-0.1-4-0.6-6.7-1.7c-0.4-0.2-0.8-0.3-1.1-0.3l2.7-2.7c1.7,1.2,3.3,1.8,4.8,1.8
			c1.3,0,2.3-0.4,3.1-1.2c0.2-0.2,0.3-0.3,0.5-0.5L144.4,59.3z"/>
		<polygon class="st1" points="139.5,54.5 139.5,54.5 139.5,54.4 139.5,54.4 		"/>
		<path class="st1" d="M135.3,58.6C135.4,58.6,135.4,58.6,135.3,58.6l-2.7,2.8c0,0,0,0,0,0L135.3,58.6z"/>
		<path class="st1" d="M135.3,58.6l-2.7,2.7c-0.2,0-0.4-0.1-0.5-0.1c-0.9,0-1.6,0.7-2.2,2h-1.3l-0.6-13.5h1.4
			c1.2,3.5,2.9,6.2,4.9,7.9C134.6,58.1,135,58.4,135.3,58.6z"/>
		<polygon class="st1" points="105.3,24.9 105.3,28.8 96.4,28.8 100.4,24.9 		"/>
		<path class="st1" d="M104.1,54.2l1.2,0.9c-2.2,5.1-5.7,7.7-10.5,7.7c-1.6,0-3-0.3-4.3-0.9l0-8.6l0.7-0.7L90.4,52l-0.1-17.2l6-6
			v23.1c0,2.2,0.1,3.6,0.3,4.2c0.2,0.6,0.5,1.1,1,1.5c0.5,0.4,1,0.6,1.4,0.6C100.9,58.2,102.6,56.9,104.1,54.2z"/>
		<path class="st3" d="M100.4,24.9l-4,4h0v0l-6,6l-0.1-16.6c1.8-2.2,3.4-4.6,4.8-7.1h1.2l0.2,0.2v13.5H100.4z"/>
		<polygon class="st3" points="96.4,28.8 96.4,28.8 96.4,28.8 		"/>
		<polygon points="96.4,11.1 96.4,11.3 96.2,11.1 		"/>
		<polygon class="st1" points="91.1,52.7 90.5,53.3 90.4,52 		"/>
		<path class="st1" d="M90.5,53.3l0,8.6c-0.6-0.3-1.2-0.6-1.8-1.1c-1.2-1-2.1-2-2.6-3.1L90.5,53.3z"/>
		<path class="st1" d="M90.4,52l0,1.3l-4.3,4.3c-0.2-0.4-0.4-0.8-0.5-1.3c-0.3-0.9-0.4-3.4-0.4-7.4v-2.2L90.4,52z"/>
		<polygon class="st1" points="90.4,34.9 90.4,52 85.2,46.8 85.2,40 		"/>
		<path class="st3" d="M90.3,18.3l0.1,16.6L85.2,40V28.8h-4.9v-1.4c3.4-2.4,6.2-4.9,8.6-7.5C89.4,19.4,89.8,18.9,90.3,18.3z"/>
		<path class="st1" d="M78.4,42.2h-5.2l0-7.4l5,5C78.3,40.6,78.4,41.4,78.4,42.2z"/>
		<path class="st1" d="M77.1,51.2l1.4,0.9c-0.8,1.6-1.6,2.9-2.4,4.2l-1.6-1.6C75.3,53.7,76.2,52.6,77.1,51.2z"/>
		<path class="st3" d="M78.3,39.8l-5-5l0-7.1c0.2,0.2,0.4,0.4,0.6,0.6C76.3,31.1,77.8,34.9,78.3,39.8z"/>
		<path class="st3" d="M74.4,54.6l1.6,1.6c-0.9,1.3-1.9,2.5-2.9,3.4l0-3.9C73.6,55.4,74,55,74.4,54.6z"/>
		<path class="st3" d="M73.3,27.8l0,7.1l-6.4-6.4c-0.3-0.6-0.8-1-1.2-1.4c-0.2-0.1-0.4-0.3-0.6-0.4l-2.9-2.9
			c0.6-0.1,1.2-0.1,1.8-0.1C67.6,23.7,70.7,25.1,73.3,27.8z"/>
		<path class="st1" d="M73.3,34.9l0,7.4H57.9c0.2,5,1.6,8.9,4,11.8c1.8,2.2,4.1,3.3,6.7,3.3c1.6,0,3.1-0.4,4.4-1.3
			c0.1-0.1,0.2-0.2,0.3-0.2l0,3.9c-0.5,0.5-1,0.9-1.5,1.2c-2.5,1.7-5.3,2.6-8.5,2.6c-5.5,0-9.8-2.1-12.6-6.4
			c-2.3-3.4-3.5-7.7-3.5-12.8c0-6.2,1.7-11.2,5.1-14.9c2.9-3.2,6.3-5,10.1-5.4l2.9,2.9c-0.5-0.2-1-0.4-1.7-0.4c-1.4,0-2.5,0.7-3.4,2
			c-1.6,2.4-2.4,5.6-2.4,9.8v1.4h10.9c0-4.3-0.2-7.2-0.7-8.9c-0.2-0.8-0.6-1.6-1-2.2L73.3,34.9z"/>
		<path class="st2" d="M44.8,25.3v4.4h-7.2c1.3,1.3,2.2,2.5,2.7,3.6c0.5,1.2,0.8,2.4,0.9,3.6L29.5,48.7l-1.3-1.3
			c0.3-0.3,0.6-0.6,0.9-1c1.1-1.5,1.6-4.3,1.6-8.6c0-4.8-0.6-8-1.8-9.8c-0.8-1.1-1.8-1.8-3.1-1.9l0.2-2.4c2,0.2,4.1,0.7,6.2,1.5
			H44.8z"/>
		<path class="st1" d="M40.4,59.8c3,1.7,4.5,4.3,4.5,7.9c0,2.3-0.7,4.3-2.1,6.2c-1.3,1.8-3,3.1-5.1,4l-2.3-2.3c2-1,3-2.3,3-4
			c0-0.3,0-0.6-0.1-0.8h2.2L27.7,58l1.1,0C34.4,58,38.3,58.6,40.4,59.8z"/>
		<path class="st1" d="M41.3,37.3c0,0.2,0,0.3,0,0.5c0,2.7-0.8,5-2.2,7c-1.5,2-3.5,3.5-6,4.6c-2,0.9-3.8,1.4-5.4,1.6L41.3,37.3z"/>
		<path class="st1" d="M41.3,36.9c0,0.1,0,0.2,0,0.4L27.7,50.9c-0.1,0-0.3,0-0.4,0l2.2-2.2L41.3,36.9z"/>
		<path class="st1" d="M27.7,58l12.8,12.8h-2.2c-0.1-0.3-0.2-0.6-0.5-0.9c-0.7-0.8-1.8-1.3-3.3-1.6c-1-0.2-3.3-0.3-6.9-0.4h0
			L24,64.2l-4.8-4.9l1.3-1.3c0.4,0,0.8,0.1,1.3,0.1L27.7,58z"/>
		<path d="M35.4,75.6l2.3,2.3c0,0,0,0,0,0L35.4,75.6C35.4,75.6,35.4,75.6,35.4,75.6z"/>
		<path class="st0" d="M37.7,77.9c-0.1,0.1-0.2,0.1-0.3,0.1c-3.5,1.3-7.4,2-11.9,2c-3.4,0-6.4-0.3-9.2-1c-0.9-0.2-1.8-0.5-2.6-0.8
			v-7.5h1.7c-0.1,0.3-0.2,0.7-0.2,1.1c0,1.4,0.8,2.6,2.4,3.7c1.6,1.1,4.5,1.7,8.9,1.7c3.7,0,6.6-0.5,8.8-1.5c0.1,0,0.1-0.1,0.2-0.1
			L37.7,77.9z"/>
		<path class="st2" d="M29.5,48.7L27.2,51c-0.3,0-0.6,0-1,0c-0.2,0-1.8-0.1-4.8-0.2c-0.3,0-0.6,0-0.9,0.1l-1.5-1.5L8.6,38.9
			c-0.1-0.5-0.1-1.1-0.1-1.7c0-3.7,1.5-6.8,4.5-9.5s6.8-4,11.5-4c0.5,0,1,0,1.5,0.1l-0.2,2.4c-0.2,0-0.4,0-0.6,0
			c-1.5,0-2.9,0.8-3.9,2.3c-1.1,1.6-1.6,4.8-1.6,9.7c0,4,0.5,6.7,1.6,8.2c1.1,1.5,2.3,2.2,3.7,2.2c1.2,0,2.3-0.4,3.2-1.2L29.5,48.7z
			"/>
		<polygon points="24,64.2 27.6,67.9 24.6,64.9 		"/>
		<path class="st0" d="M24.6,64.9l3,3c-1.4,0-3,0-4.7,0c-2.7,0-4.5,0.2-5.4,0.7c-1.1,0.6-1.8,1.4-2.1,2.3h-1.7v-3.6
			c0.4-0.1,0.9-0.3,1.3-0.4c-0.5-0.2-0.9-0.5-1.3-0.7v-1.2H24.6z"/>
		<path class="st0" d="M24,64.2l0.6,0.6H13.7h-1.6c-1.5-1.4-2.3-3.1-2.3-5.1c0-1.8,0.7-3.6,2.1-5.4c0.3-0.4,0.7-0.8,1.1-1.2l6,6
			L19,59.2L24,64.2z"/>
		<polygon points="19.3,59.3 24,64.2 19,59.2 19.1,59.1 		"/>
		<path class="st1" d="M20.6,58l-1.3,1.3l-0.2-0.2l1.2-1.2C20.4,58,20.5,58,20.6,58z"/>
		<path class="st2" d="M19.1,49.4l1.5,1.5C19.7,51,19,51.4,18.4,52c-0.8,0.8-1.2,1.7-1.2,2.8c0,1,0.4,1.8,1.1,2.4
			c0.5,0.4,1.1,0.7,1.9,0.8l-1.2,1.2l-6-6c1.4-1.2,3.2-2.3,5.6-3.3L19.1,49.4z"/>
		<path class="st2" d="M19.1,49.4l-0.4,0.4c-3.6-1.3-6.2-3-7.8-5.2c-1.3-1.7-2-3.6-2.3-5.8L19.1,49.4z"/>
		<path class="st0" d="M15,66.8c-0.5,0.1-0.9,0.2-1.3,0.4v-1.1C14.1,66.4,14.5,66.6,15,66.8z"/>
		<path class="st2" d="M13.7,70.8v7.5c-1.5-0.5-2.6-1.2-3.4-2c-1.2-1.2-1.8-2.4-1.8-3.7c0-0.7,0.1-1.3,0.4-1.8H13.7z"/>
		<path class="st2" d="M13.7,67.2v3.6H8.9c0.2-0.5,0.6-1,1-1.5C10.6,68.5,11.9,67.8,13.7,67.2z"/>
		<path class="st2" d="M13.7,64.9v1.2c-0.6-0.4-1.1-0.8-1.6-1.2H13.7z"/>
	</g>
</g>
</svg>
