<?xml version="1.0" encoding="utf-8"?>
<!-- Generator: Adobe Illustrator 22.1.0, SVG Export Plug-In . SVG Version: 6.00 Build 0)  -->
<svg version="1.1" id="Layer_1" xmlns="http://www.w3.org/2000/svg" xmlns:xlink="http://www.w3.org/1999/xlink" x="0px" y="0px"
	 viewBox="0 0 375 214.7" style="enable-background:new 0 0 375 214.7;" xml:space="preserve">
<style type="text/css">
	.st0{fill:#00004C;}
	.st1{fill:#FF0000;}
	.st2{fill:#7F0000;}
	.st3{fill:#000099;}
</style>
<g>
	<path d="M117.4,58.9l4-4c0.1,1.4,0.3,2.8,0.3,4.3H117L117.4,58.9L117.4,58.9z"/>
	<g>
		<path class="st0" d="M369.4,176c-2-3.1-6.3-6.8-12.7-11.1c-6.5-4.4-10.4-7.4-11.8-9.2c-0.9-1.1-1.3-2.2-1.3-3.4
			c0-1.6,0.6-3,1.9-4.2c1.3-1.2,2.8-1.8,4.6-1.8c2.8,0,5.7,1.2,8.6,3.4c2.9,2.3,5.7,6.5,8.3,12.8h2.2l-1-21h-2.2
			c-1.1,1.5-1.8,2.5-2.3,2.8c-0.5,0.3-1.1,0.5-1.9,0.5c-0.7,0-1.7-0.3-2.9-1c-3.1-1.6-6.4-2.4-9.7-2.4c-1.1,0-2.1,0.1-3.1,0.2
			l-5.3,5.3l-10.5,10.5c-0.1,0.9-0.2,1.7-0.2,2.6c0,4.4,1.4,8.3,4.3,11.9c1.8,2.2,5.4,5.3,11,9.2h26.3
			C371.3,179.3,370.5,177.6,369.4,176z"/>
		<path class="st0" d="M313.4,198c-0.7,0-1.5-0.3-2.3-1c-0.8-0.6-1.4-1.5-1.8-2.5c-0.3-1-0.5-3.3-0.5-6.9v-8.9l-17.4,17.4
			c0.9,2.2,2.5,4.3,4.8,6.2c2.7,2.2,6,3.3,9.9,3.3c8,0,13.8-4.2,17.3-12.7l-2-1.5C319,195.8,316.3,198,313.4,198z"/>
		<polygon class="st0" points="153.9,22.4 151.2,25.1 141,35.3 135.4,40.9 135.4,69.6 141,69.6 153.9,69.6 153.9,37.2 168.5,37.2 
			168.5,30.7 153.9,30.7 		"/>
		<path class="st0" d="M123.3,184.2h-2.2l0.6,11.4l7.7,7.7c0.4,0.1,0.8,0.3,1.3,0.4c4.2,1.6,7.6,2.5,10.4,2.7v-4.9
			c-3-0.1-6.2-1.5-9.5-4.3C128,194.3,125.3,190,123.3,184.2z"/>
		<path class="st0" d="M129,176v-32.3c-1.4,0.8-2.7,1.9-3.8,3.2c-3.3,3.9-4.9,8.1-4.9,12.9c0,4.4,1.5,8.3,4.3,11.9
			C125.5,173,127,174.4,129,176z"/>
		<path class="st0" d="M119.5,73.9c-2.5,3.8-4.8,6.5-6.9,7.9c-2.1,1.5-4.5,2.2-7.2,2.2c-3.6,0-6.7-1.3-9.4-3.8L84.8,91.5
			c3.4,1.7,7.4,2.6,11.9,2.6c5.3,0,10-1.4,14-4.3c4-2.8,7.7-7.6,11.1-14.4L119.5,73.9z"/>
		<path class="st0" d="M88.1,141.2c-5.7,0-10.9,1.8-15.5,5.4l6.7,6.7c0.6-1.6,1.3-3.1,2.2-4.4c1.5-2.2,3.3-3.4,5.6-3.4
			c1.5,0,2.8,0.4,3.7,1.2c1.6,1.3,2.8,3.4,3.6,6c0.8,2.6,1.2,7.5,1.2,14.6h-2.2l4.4,4.4h14c-0.3-10.1-2.8-17.6-7.4-22.8
			C99.7,143.8,94.3,141.2,88.1,141.2z"/>
	</g>
	<g>
		<path class="st1" d="M308.9,143.1v-22.5h-2.2c-2.9,5.3-6.3,10.1-10.2,14.4c-2.2,2.4-4.7,4.8-7.4,7.2l18.3,18.3l1.5,1.5v-12.3h14.6
			v-6.5H308.9z"/>
		<path class="st1" d="M141,181v3.9c2.7,1.9,4.5,3.5,5.5,4.6c1.3,1.5,2,3.4,2,5.5c0,1.8-0.7,3.4-2,4.7c-1.3,1.3-3.1,1.9-5.2,1.9
			c-0.1,0-0.2,0-0.3,0v4.9c0.5,0.1,1,0.1,1.4,0.1c3.8,0,7.2-0.9,10.3-2.6c3.1-1.8,5.5-4.3,7.2-7.6c1.7-3.3,2.6-6.7,2.6-10.1
			c0-1.8-0.2-3.6-0.7-5.2H141z"/>
		<path class="st1" d="M102.6,194.3c-1.2,0.8-2.4,1.4-3.8,1.8l4.3,4.3c3.1-2.9,6-7.1,8.7-12.5l-2.2-1.5
			C107,190.2,104.7,192.8,102.6,194.3z"/>
		<path class="st1" d="M98.1,28.8c-3.2,0-6.2,0.6-9.1,1.7l4.1,4.1c1.2-1,2.5-1.5,4-1.5c1.5,0,2.8,0.4,3.7,1.2c1.6,1.3,2.8,3.4,3.6,6
			c0.4,1.5,0.7,3.7,0.9,6.5c0,0,0,0,0,0l2.2,2.1l9.9,9.9l0,0l4-4c-0.8-7.9-3.2-14.1-7.1-18.4C109.7,31.4,104.3,28.8,98.1,28.8z"/>
		<path class="st1" d="M93.3,167.3H77.6V165c0-4.5,0.6-8.4,1.7-11.6l-6.7-6.7c-1.4,1.1-2.8,2.3-4.1,3.8c-5.6,6.1-8.3,14.3-8.3,24.5
			c0,8.4,1.9,15.4,5.7,21.1c4.3,6.4,10.4,9.9,18.4,10.4l10-10c-3.8-0.3-7-2.1-9.8-5.4c-4-4.7-6.1-11.2-6.5-19.4h19.7L93.3,167.3z"/>
		<path class="st1" d="M47.3,141.2c-2.8,0-5.8,1-8.9,3.1c-3.1,2.1-6.7,6.3-10.7,12.7v-8.4L9.4,167v23.2c0,5.4-0.5,8.7-1.4,9.9
			c-0.9,1.3-2.8,2-5.4,2.2v2.4h33.3v-2.4c-2.5-0.1-4.2-0.5-5.2-1c-1-0.5-1.8-1.4-2.3-2.6c-0.3-0.7-0.5-2.3-0.5-4.8l-0.1-3.7V176
			c0-5.1,0.7-9.8,2.1-14.1c0.3-1,0.8-2,1.2-2.8c0.8-1.4,1.7-2.6,2.9-3.6c1.1-1,2.4-1.4,3.6-1.4c0.6,0,1.1,0.1,1.5,0.4
			c0.3,0.2,1.3,1,3,2.5c1.7,1.5,3.7,2.2,6.1,2.2c2,0,3.7-0.8,5.2-2.4c1.4-1.6,2.1-3.9,2.1-6.9c0-2.8-0.7-4.9-2.2-6.4
			C51.7,142,49.7,141.2,47.3,141.2z"/>
	</g>
	<g>
		<path class="st2" d="M137.6,182.5c1.2,0.9,2.4,1.6,3.4,2.4V181h-5.5C136.2,181.5,136.9,182,137.6,182.5z"/>
		<path class="st2" d="M335.1,147c-2.7,3.1-4.2,6.6-4.7,10.3l10.5-10.5l5.3-5.3C341.5,142,337.8,143.8,335.1,147z"/>
		<polygon class="st2" points="271.1,124.1 271.1,115.4 262.3,115.4 		"/>
		<polygon class="st2" points="213,204.7 218.8,204.7 213,198.9 		"/>
		<path class="st2" d="M206.6,196.3c-1.3,0.8-2.7,1.2-4.3,1.2c-1.2,0-2.2-0.3-3.1-1c-0.9-0.7-1.6-1.6-2-2.9
			c-0.4-1.3-0.6-4.1-0.6-8.5v-2.7l-1.5-1.5h-16.9c0,7.1,0.5,12,1.4,14.8c0.9,2.8,2.7,5.4,5.4,7.5c2.7,2.1,5.8,3.2,9.3,3.2
			c3.6,0,6.9-0.8,9.9-2.4c2.6-1.4,5.1-3.5,7.7-6.4l-3.1-3.1C208,195.3,207.3,195.9,206.6,196.3z"/>
		<path class="st2" d="M141.5,22.6c-3.9,4.3-8.6,8.4-14.1,12.3v2.3h8v3.7l5.5-5.5l10.2-10.2l2.7-2.7V8.1h-2.2
			C148.8,13.4,145.4,18.3,141.5,22.6z"/>
		<path class="st2" d="M122.1,206.3h2.2c1-2.2,2.2-3.3,3.6-3.3c0.3,0,0.8,0.1,1.4,0.3l-7.7-7.7L122.1,206.3z"/>
		<path class="st2" d="M95.4,196.5c-0.4,0-0.8,0-1.1,0l-10,10c0.8,0.1,1.5,0.1,2.4,0.1c5.3,0,10-1.4,14-4.3c0.8-0.6,1.6-1.2,2.4-1.9
			l-4.3-4.3C97.7,196.4,96.6,196.5,95.4,196.5z"/>
		<path class="st2" d="M2.5,145.5c2.1,0.2,3.6,0.6,4.4,1.2c0.8,0.6,1.5,1.5,1.9,2.7c0.3,1,0.5,3.2,0.5,6.7V167l18.3-18.3v-5.6H2.5
			V145.5z"/>
		<path class="st2" d="M32.2,116.8c-7.2,0-12-0.9-14.6-2.7c-2.6-1.8-3.9-3.9-3.9-6.1c0-2.3,1.3-4.2,3.8-5.5c1.4-0.7,4.4-1.1,8.9-1.1
			c0.2,0,0.4,0,0.6,0L6.9,81.2c-1.4,2.2-2.1,4.5-2.1,6.8c0,5,2.8,8.9,8.6,11.7c-4.1,1.1-6.9,2.4-8.5,4c-1.5,1.6-2.3,3.4-2.3,5.4
			c0,2.1,1,4.1,3,6c2,1.9,5.2,3.4,9.8,4.5c4.6,1.1,9.6,1.6,15.2,1.6c5.4,0,10.3-0.6,14.7-1.7l-3.7-3.7
			C38.9,116.5,35.8,116.8,32.2,116.8z"/>
	</g>
	<g>
		<path class="st3" d="M371.8,181h-26.3c0.7,0.5,1.3,0.9,2.1,1.4c4.6,3.1,7.5,5.4,8.8,7c1.3,1.5,2,3.4,2,5.5c0,1.8-0.7,3.4-2,4.7
			c-1.3,1.3-3.1,1.9-5.2,1.9c-3.1,0-6.3-1.4-9.8-4.3c-3.4-2.9-6.2-7.2-8.1-13H331l1,22.1h2.2c1-2.2,2.2-3.3,3.6-3.3
			c0.5,0,1.4,0.2,2.7,0.7c4.9,1.8,8.8,2.8,11.8,2.8c3.8,0,7.2-0.9,10.3-2.6c3.1-1.8,5.5-4.3,7.3-7.6c1.7-3.3,2.6-6.7,2.6-10.1
			C372.5,184.4,372.3,182.7,371.8,181z"/>
		<path class="st3" d="M289.1,142.1c-2.1,1.8-4.3,3.5-6.7,5.2v2.3h8v33.3c0,6.6,0.2,10.6,0.7,12.1c0.1,0.4,0.2,0.7,0.4,1.1
			l17.4-17.4v-16.8l-1.5-1.5L289.1,142.1z"/>
		<path class="st3" d="M272.6,200.2c-1-1.2-1.5-4-1.5-8.3v-67.8l-8.8-8.8h-17.1v2.4c2.9,0.2,4.9,0.9,5.9,2.1c1,1.2,1.5,4,1.5,8.3
			v63.8c0,4.3-0.4,7-1.3,8c-1.3,1.5-3.3,2.3-6.1,2.4v2.4h33.3v-2.4C275.6,202.1,273.6,201.4,272.6,200.2z"/>
		<path class="st3" d="M232.7,200.1c-0.9-1.2-1.3-4.1-1.3-8.8v-48.2h-25.1v2.4c2.7,0.4,4.5,1.1,5.4,2.2c0.9,1.1,1.3,4,1.3,8.7v32.9
			c-1.6,2.2-3,4-4.3,5.2l3.1,3.1l1.1,1.1l5.8,5.8h19.3v-2.4C235.4,202,233.6,201.3,232.7,200.1z"/>
		<path class="st3" d="M171.5,145.5c2.7,0.4,4.5,1.1,5.4,2.2c0.9,1.1,1.3,4,1.3,8.7v24.4c0,0,0,0.1,0,0.1h16.9l1.5,1.5v-39.4h-25.1
			V145.5z"/>
		<path class="st3" d="M158.4,85.5c-0.7,0-1.5-0.3-2.3-1c-0.8-0.6-1.4-1.5-1.7-2.5c-0.3-1-0.5-3.3-0.5-6.9v-5.6H141h-5.5v0.8
			c0,6.6,0.2,10.6,0.7,12.1c0.7,2.7,2.5,5.1,5.2,7.3c2.7,2.2,6,3.3,9.9,3.3c8,0,13.8-4.2,17.3-12.7l-2-1.5
			C164,83.4,161.3,85.5,158.4,85.5z"/>
		<path class="st3" d="M146.8,164.9c-6.5-4.4-10.4-7.4-11.8-9.2c-0.9-1.1-1.3-2.2-1.3-3.4c0-1.6,0.6-3,1.9-4.2
			c1.3-1.2,2.8-1.8,4.6-1.8c2.8,0,5.7,1.2,8.6,3.4s5.7,6.5,8.3,12.8h2.2l-1-21h-2.2c-1,1.5-1.8,2.5-2.3,2.8
			c-0.5,0.3-1.1,0.5-1.9,0.5c-0.7,0-1.7-0.3-2.9-1c-3.1-1.6-6.4-2.4-9.7-2.4c-4.1,0-7.6,0.8-10.4,2.5V176c1.8,1.5,4,3.1,6.6,5h5.5
			h20.9c-0.5-1.8-1.3-3.4-2.4-5C157.5,172.9,153.2,169.2,146.8,164.9z"/>
		<path class="st3" d="M105.3,46.8c0.1,2.2,0.2,4.9,0.2,8H87.6v-2.3c0-6.8,1.3-12.2,3.9-16.1c0.5-0.7,1-1.4,1.6-1.9L89,30.5
			c-3.8,1.5-7.3,4-10.4,7.4C73,44,70.2,52.2,70.2,62.5c0,8.4,1.9,15.4,5.7,21.1c2.4,3.6,5.3,6.2,8.9,8L96,80.3
			c-0.5-0.5-1.1-1.1-1.6-1.7c-4-4.7-6.1-11.2-6.5-19.4H117l0.4-0.4l-9.9-9.9L105.3,46.8z"/>
		<path class="st3" d="M55.1,88.2c-3.5-2-9.8-3-19-3l-11.4,0.1c-2.7,0-4.7-0.5-5.9-1.5c-1.2-1-1.8-2.3-1.8-3.9c0-1.8,0.7-3.3,2-4.6
			c0.7-0.6,1.4-1.1,2.2-1.5c0.8-0.3,1.7-0.5,2.7-0.5c2.5,0.1,4.5,0.2,5.8,0.2c1.3,0.1,2,0.1,2.1,0.1c3.3,0,7-0.9,11.2-2.7
			c4.2-1.8,7.5-4.3,10-7.6c2.4-3.2,3.6-7,3.6-11.4c0-2.6-0.5-5.1-1.6-7.4c-0.8-1.8-2.3-3.7-4.5-5.9h11.8v-7.3H41.6
			c-3.5-1.4-6.9-2.2-10.1-2.4c-0.8-0.1-1.7-0.1-2.5-0.1c-7.7,0-14.1,2.2-19,6.6c-4.9,4.4-7.4,9.6-7.4,15.6c0,4.6,1.3,8.7,4,12.2
			c2.6,3.5,6.9,6.4,12.8,8.5c-0.6,0.3-1.2,0.5-1.8,0.8c-4.1,1.9-7.2,4.1-9.2,6.6c-0.5,0.7-1,1.3-1.4,2L27,101.3
			c10,0,16.1,0.3,18.5,0.7c2.4,0.5,4.2,1.4,5.4,2.7c0.7,0.7,1,1.7,1,2.8c0,3-1.8,5.2-5.2,6.9c-1.4,0.7-3.1,1.2-5,1.6l3.7,3.7
			c1.7-0.4,3.3-0.9,4.8-1.5c3.7-1.5,6.7-3.7,9-6.8c2.3-3,3.4-6.4,3.4-10.2C62.6,95.4,60.1,91,55.1,88.2z M23.8,36.8
			c1.8-2.6,3.9-3.9,6.4-3.9c0.3,0,0.6,0,0.9,0c2.1,0.2,3.8,1.3,5,3.1c2,2.9,3,8.2,3,16.1c0,7-0.9,11.7-2.6,14.1
			c-1.8,2.4-4,3.6-6.6,3.6c-2.4,0-4.4-1.2-6.2-3.7c-1.7-2.4-2.6-6.9-2.6-13.5C21.1,44.7,22,39.3,23.8,36.8z"/>
	</g>
</g>
</svg>
