<?xml version="1.0" encoding="iso-8859-1"?>
<!-- Generator: Adobe Illustrator 22.1.0, SVG Export Plug-In . SVG Version: 6.00 Build 0)  -->
<svg version="1.1" xmlns="http://www.w3.org/2000/svg" xmlns:xlink="http://www.w3.org/1999/xlink" x="0px" y="0px"
	 viewBox="0 0 200 103.129" style="enable-background:new 0 0 200 103.129;" xml:space="preserve">
<g id="Layer_1">
	<g>
		<g>
			<polygon style="fill:#000099;" points="122.093,51.565 122.093,57.877 122.093,89.439 147.343,89.439 147.343,83.127 
				147.343,26.315 			"/>
			<polygon style="fill:#000099;" points="100,35.783 77.907,13.69 77.907,51.565 81.062,54.72 81.061,54.721 99.998,73.658 
				118.935,54.721 99.999,35.785 			"/>
		</g>
		<g>
			<polygon style="fill:#FF0000;" points="122.093,13.69 100,35.783 118.937,54.721 122.093,51.565 147.343,26.315 147.343,13.69 
							"/>
			<polygon style="fill:#FF0000;" points="52.657,26.315 52.657,83.127 52.657,89.439 77.907,89.439 77.907,57.877 77.907,51.565 
				77.907,13.69 52.657,13.69 			"/>
		</g>
		<g>
			<polygon style="opacity:0.5;enable-background:new    ;" points="52.657,89.439 77.907,89.439 77.907,83.127 52.657,57.877 			
				"/>
			<polygon style="opacity:0.5;enable-background:new    ;" points="77.907,51.565 96.844,32.627 77.907,13.69 			"/>
			
				<rect x="106.198" y="23.971" transform="matrix(0.7071 -0.7071 0.7071 0.7071 7.9542 93.9271)" style="opacity:0.5;enable-background:new    ;" width="22.318" height="26.781"/>
			<polygon style="opacity:0.5;enable-background:new    ;" points="122.093,51.565 122.093,57.877 147.343,57.877 147.343,26.315 
							"/>
		</g>
	</g>
</g>
<g id="Layer_2" style="display:none;">
	
		<text transform="matrix(1 0 0 1 -46.5 227.5645)" style="display:inline; font-family:'Telegrafico'; font-size:40px; letter-spacing:8;">MARKOWITZ LAW</text>
</g>
</svg>
